<svg id="Group_1227870" data-name="Group 1227870" xmlns="http://www.w3.org/2000/svg" width="76.345" height="76.344" viewBox="0 0 76.345 76.344">
  <g id="Group_1200255" data-name="Group 1200255" transform="translate(0 0)">
    <g id="Group_1187152" data-name="Group 1187152">
      <g id="Group_1185946" data-name="Group 1185946">
        <g id="Group_1184280" data-name="Group 1184280">
          <g id="Group_1182168" data-name="Group 1182168">
            <g id="Group_1178877" data-name="Group 1178877">
              <g id="Group_1111311" data-name="Group 1111311">
                <g id="Group_1098742" data-name="Group 1098742">
                  <g id="Rectangle_400898" data-name="Rectangle 400898" transform="translate(0)" fill="#f9c896" stroke="#ad8b68" stroke-width="1" opacity="0.859">
                    <rect width="76.345" height="76.344" rx="38.172" stroke="none"/>
                    <rect x="0.5" y="0.5" width="75.345" height="75.344" rx="37.672" fill="none"/>
                  </g>
                  <g id="Rectangle_400907" data-name="Rectangle 400907" transform="translate(0)" fill="none" stroke="#ad8b68" stroke-width="1">
                    <rect width="76.345" height="76.344" rx="38.172" stroke="none"/>
                    <rect x="0.5" y="0.5" width="75.345" height="75.344" rx="37.672" fill="none"/>
                  </g>
                </g>
              </g>
            </g>
          </g>
        </g>
      </g>
    </g>
  </g>
  <g id="animal_16389091_1_" data-name="animal_16389091 (1)" transform="translate(13.881 13.697)">
    <path id="Path_1378897" data-name="Path 1378897" d="M42.208,10.771l5.319-.716C46.913,8.419,44.152,7.7,44.152,7.7a3.87,3.87,0,0,0,1.023-2.046A2.532,2.532,0,0,0,42.617,3.1a2.465,2.465,0,0,0-2.353,1.637,2.512,2.512,0,0,0-1.534-.511c-1.739,0-2.455,2.046-2.455,2.046S31.161,17.625,22.467,17.625,10.193,13.84,10.193,13.84L7.636,16.7A15.183,15.183,0,0,1,2.01,13.329a5.772,5.772,0,0,0,2.353,7.16s-1.33,4.91,3.171,6.649c0,0,0,8.49,11.865,10.535,0,0,.818.2,1.943.409v7.774h5.012V37.775a5.347,5.347,0,0,0,1.637-.614,29.433,29.433,0,0,0,11.047-7.978,16.611,16.611,0,0,0,3.989-12.274l-.511-2.25a2.226,2.226,0,0,0,2.148-2.25c.1-1.023-1.125-1.739-2.455-1.637Z" transform="translate(0.036 0.071)" fill="#fca31f"/>
    <g id="Group_1203673" data-name="Group 1203673" transform="translate(0)">
      <path id="Path_1378898" data-name="Path 1378898" transform="translate(0)" fill="#e28813"/>
      <path id="Path_1378899" data-name="Path 1378899" d="M41.764,10.771l5.319-.716C46.469,8.419,43.708,7.7,43.708,7.7A3.87,3.87,0,0,0,44.73,5.657,2.532,2.532,0,0,0,42.173,3.1a2,2,0,0,0-.716.1,3.437,3.437,0,0,1-.818,1.432s2.762.716,3.375,2.353L38.7,7.7c1.33-.1,2.557.614,2.557,1.739a2.325,2.325,0,0,1-2.148,2.25l.511,2.25c.818,7.058-3.989,12.274-3.989,12.274-3.887,4.6-7.978,6.444-11.047,7.978a10.647,10.647,0,0,1-1.637.614v8.081H21v3.069h5.012V37.775a5.347,5.347,0,0,0,1.637-.614A29.433,29.433,0,0,0,38.7,29.183a16.611,16.611,0,0,0,3.989-12.274l-.511-2.25a2.226,2.226,0,0,0,2.148-2.25c0-1.023-1.227-1.739-2.557-1.637Z" transform="translate(0.48 0.071)" fill="#e28813"/>
      <path id="Path_1378900" data-name="Path 1378900" d="M18.1,34.369a19.472,19.472,0,0,1-1.943-.409A17.487,17.487,0,0,1,9,31.3c1.432,2.148,4.091,4.5,9.206,5.523V34.369Z" transform="translate(0.206 0.716)" fill="#e28813"/>
    </g>
    <ellipse id="Ellipse_12441" data-name="Ellipse 12441" cx="2.659" cy="2.659" rx="2.659" ry="2.659" transform="translate(39.789 3.171)" fill="#ff3165"/>
    <path id="Path_1378901" data-name="Path 1378901" d="M32.724,14.923c-1.841,2.25-3.682,4.5-10.024,5.319l.307,2.046c7.16-.921,9.41-3.682,11.354-6.035a7.166,7.166,0,0,0,.818-1.023L33.645,13.9a4.607,4.607,0,0,0-.921,1.023Z" transform="translate(0.519 0.318)"/>
    <path id="Path_1378902" data-name="Path 1378902" d="M45.626,7.214a5.2,5.2,0,0,0,.409-1.432v-.1a3.624,3.624,0,0,0-3.58-3.58,3.443,3.443,0,0,0-2.762,1.33,4.35,4.35,0,0,0-1.125-.2c-1.943,0-3.069,1.739-3.478,2.659,0,.1-4.91,10.74-12.888,10.74-8.081.1-11.354-3.375-11.354-3.375a.825.825,0,0,0-.921-.307c-.307,0-.614.307-.818.614a5.053,5.053,0,0,0,1.534,6.035,4.046,4.046,0,0,0,2.455,4.4c.2,1.943,1.534,6.853,9.717,7.569a11.117,11.117,0,0,0,1.841.1c7.978,0,9.615-4.807,9.717-5.012l-1.943-.716c-.1.2-1.637,4.194-9.513,3.58-5.626-.511-7.262-3.171-7.774-4.807a22.005,22.005,0,0,0,2.966.614l.1-2.046c-.921-.1-3.171-.716-3.989-.921a2.423,2.423,0,0,1-1.739-1.739c.716.2,1.534.511,2.455.716l.409-2.046a18.021,18.021,0,0,1-3.273-1.023,3.168,3.168,0,0,1-1.534-2.353c1.841,1.227,5.421,2.966,11.456,2.966,9.308,0,14.525-11.456,14.831-12.07,0,0,.614-1.432,1.534-1.432a1.942,1.942,0,0,1,.921.307,1.52,1.52,0,0,0,.921.2,1.375,1.375,0,0,0,.716-.614,1.538,1.538,0,0,1,1.432-1.023A1.555,1.555,0,0,1,43.887,5.68a1.98,1.98,0,0,1-.614,1.33.981.981,0,0,0-.307,1.023,1.011,1.011,0,0,0,.716.716,5.983,5.983,0,0,1,1.534.614l-3.375.409a1.2,1.2,0,0,0-.921,1.125,1.113,1.113,0,0,0,1.125.921,2.43,2.43,0,0,1,1.227.307.531.531,0,0,1,.2.409c0,1.023-.818,1.125-1.227,1.227,0,0-1.841.2-2.046-1.023l-2.046.409c.409,2.557,3.069,2.864,4.3,2.659a3.251,3.251,0,0,0,3.069-3.273,2.331,2.331,0,0,0-.307-1.125l2.148-.307a.769.769,0,0,0,.716-.511.994.994,0,0,0,.1-.921,4.059,4.059,0,0,0-2.557-2.455Z" transform="translate(0.198 0.048)"/>
    <path id="Path_1378903" data-name="Path 1378903" d="M24.8,39.105V42.89h2.046V39.105a1.456,1.456,0,0,1,.921-1.33,26.275,26.275,0,0,0,11.456-8.183A17.494,17.494,0,0,0,43.416,16.5l-2.046.2c.818,6.546-3.682,11.354-3.682,11.456A25.382,25.382,0,0,1,27.05,35.832a3.718,3.718,0,0,0-2.25,3.273Z" transform="translate(0.567 0.377)"/>
    <path id="Path_1378904" data-name="Path 1378904" d="M3.16,20.793a6.249,6.249,0,0,0,3.375,6.853c.307,2.25,2.148,9,12.683,10.842a1.416,1.416,0,0,1,1.125,1.33v3.171H22.39V39.818a3.412,3.412,0,0,0-2.864-3.375C11.343,35.01,9.2,30.51,8.684,28.26a15.859,15.859,0,0,0,2.966.409h.307l-.1-2.046a17.964,17.964,0,0,1-4.091-.614,4.007,4.007,0,0,1-2.659-4.3,21.3,21.3,0,0,0,3.989.818V20.486a23.869,23.869,0,0,1-4.4-1.023,4.7,4.7,0,0,1-2.25-4.4,21.453,21.453,0,0,0,4.705,2.455l.716-1.943a14.98,14.98,0,0,1-5.217-3.069,1.031,1.031,0,0,0-.921-.307,1.591,1.591,0,0,0-.818.614,6.918,6.918,0,0,0,2.25,7.978Z" transform="translate(0.011 0.278)"/>
    <path id="Path_1378905" data-name="Path 1378905" d="M.5,43.9H48.575v2.046H.5Z" transform="translate(0.011 1.004)"/>
  </g>
</svg>
