<svg xmlns="http://www.w3.org/2000/svg" width="381" height="74" viewBox="0 0 381 74">
  <g id="Group_1227963" data-name="Group 1227963" transform="translate(6668 -1233)">
    <rect id="Rectangle_414883" data-name="Rectangle 414883" width="381" height="74" transform="translate(-6668 1233)" fill="#fff9eb"/>
    <g id="Group_1227930" data-name="Group 1227930" transform="translate(1.5 36.196)">
      <path id="Path_1485031" data-name="Path 1485031" d="M7.547,13H6.416L2.121,6.426V13H.99V4.469H2.121l4.307,6.6v-6.6H7.547Zm5.742-.627a2.3,2.3,0,0,1-1.857.744,1.971,1.971,0,0,1-1.544-.589,2.549,2.549,0,0,1-.536-1.743V6.66h1.084v4.1q0,1.441,1.172,1.441a1.623,1.623,0,0,0,1.652-.926V6.66h1.084V13H13.313ZM12.41,4h1.313l-1.57,1.723-.873,0Zm4.6,2.66.029.7a2.341,2.341,0,0,1,1.881-.82,1.813,1.813,0,0,1,1.811,1.02,2.4,2.4,0,0,1,.823-.738,2.431,2.431,0,0,1,1.2-.281q2.086,0,2.121,2.209V13H23.789V8.816A1.456,1.456,0,0,0,23.479,7.8a1.368,1.368,0,0,0-1.043-.337,1.437,1.437,0,0,0-1,.36,1.462,1.462,0,0,0-.463.97V13h-1.09V8.846a1.209,1.209,0,0,0-1.354-1.383,1.45,1.45,0,0,0-1.459.908V13H15.984V6.66Zm12.129,6.457a2.77,2.77,0,0,1-2.1-.847,3.142,3.142,0,0,1-.809-2.265v-.2a3.8,3.8,0,0,1,.36-1.685A2.811,2.811,0,0,1,27.6,6.962,2.534,2.534,0,0,1,29,6.543a2.374,2.374,0,0,1,1.922.814,3.526,3.526,0,0,1,.686,2.332v.451H27.316a2.254,2.254,0,0,0,.548,1.515,1.722,1.722,0,0,0,1.333.577A1.888,1.888,0,0,0,30.17,12a2.444,2.444,0,0,0,.7-.621l.662.516A2.662,2.662,0,0,1,29.139,13.117ZM29,7.434a1.446,1.446,0,0,0-1.1.478,2.321,2.321,0,0,0-.551,1.339h3.176V9.168a2.065,2.065,0,0,0-.445-1.28A1.361,1.361,0,0,0,29,7.434Zm6.926.2a3.248,3.248,0,0,0-.533-.041,1.428,1.428,0,0,0-1.447.908V13H32.865V6.66H33.92l.018.732a1.688,1.688,0,0,1,1.512-.85,1.107,1.107,0,0,1,.48.082Zm.592,2.139A3.745,3.745,0,0,1,36.888,8.1a2.732,2.732,0,0,1,1.02-1.148,2.775,2.775,0,0,1,1.491-.4,2.674,2.674,0,0,1,2.095.9,3.449,3.449,0,0,1,.8,2.385V9.9a3.777,3.777,0,0,1-.354,1.661,2.692,2.692,0,0,1-1.014,1.146,2.807,2.807,0,0,1-1.515.41,2.667,2.667,0,0,1-2.089-.9,3.432,3.432,0,0,1-.8-2.373Zm1.09.129a2.712,2.712,0,0,0,.489,1.693,1.658,1.658,0,0,0,2.622-.009,2.966,2.966,0,0,0,.486-1.813,2.708,2.708,0,0,0-.5-1.69A1.574,1.574,0,0,0,39.4,7.434a1.557,1.557,0,0,0-1.295.639A2.944,2.944,0,0,0,37.611,9.9Zm8.748-.123a3.714,3.714,0,0,1,.691-2.347A2.352,2.352,0,0,1,50.625,7.3V4h1.084v9h-1l-.053-.68a2.208,2.208,0,0,1-1.811.8,2.165,2.165,0,0,1-1.8-.9,3.756,3.756,0,0,1-.694-2.355Zm1.084.123a2.812,2.812,0,0,0,.445,1.688,1.44,1.44,0,0,0,1.23.609,1.581,1.581,0,0,0,1.506-.926V8.359a1.593,1.593,0,0,0-1.494-.9,1.446,1.446,0,0,0-1.242.615A3.1,3.1,0,0,0,47.443,9.9Zm8.578,3.217a2.77,2.77,0,0,1-2.1-.847,3.142,3.142,0,0,1-.809-2.265v-.2a3.8,3.8,0,0,1,.36-1.685,2.811,2.811,0,0,1,1.008-1.16,2.534,2.534,0,0,1,1.4-.419,2.374,2.374,0,0,1,1.922.814,3.526,3.526,0,0,1,.686,2.332v.451H54.2a2.254,2.254,0,0,0,.548,1.515,1.722,1.722,0,0,0,1.333.577A1.888,1.888,0,0,0,57.053,12a2.444,2.444,0,0,0,.7-.621l.662.516A2.662,2.662,0,0,1,56.021,13.117Zm-.135-5.684a1.446,1.446,0,0,0-1.1.478,2.321,2.321,0,0,0-.551,1.339H57.41V9.168a2.065,2.065,0,0,0-.445-1.28A1.361,1.361,0,0,0,55.887,7.434ZM66.633,13a2.277,2.277,0,0,1-.152-.668,2.419,2.419,0,0,1-1.8.785,2.238,2.238,0,0,1-1.538-.53,1.716,1.716,0,0,1-.6-1.345A1.792,1.792,0,0,1,63.29,9.7a3.55,3.55,0,0,1,2.118-.548h1.055v-.5a1.217,1.217,0,0,0-.34-.905,1.366,1.366,0,0,0-1-.337,1.581,1.581,0,0,0-.973.293.863.863,0,0,0-.393.709h-1.09A1.5,1.5,0,0,1,63,7.5a2.3,2.3,0,0,1,.914-.7,3.075,3.075,0,0,1,1.269-.258,2.506,2.506,0,0,1,1.717.548A1.976,1.976,0,0,1,67.547,8.6v2.918a3.567,3.567,0,0,0,.223,1.389V13Zm-1.8-.826a1.905,1.905,0,0,0,.967-.264,1.6,1.6,0,0,0,.662-.686v-1.3h-.85q-1.992,0-1.992,1.166a.987.987,0,0,0,.34.8A1.306,1.306,0,0,0,64.834,12.174Zm6.416-.645L72.82,6.66h1.107L71.654,13h-.826l-2.3-6.34h1.107ZM77.6,13.117a2.77,2.77,0,0,1-2.1-.847,3.142,3.142,0,0,1-.809-2.265v-.2a3.8,3.8,0,0,1,.36-1.685,2.811,2.811,0,0,1,1.008-1.16,2.534,2.534,0,0,1,1.4-.419,2.374,2.374,0,0,1,1.922.814,3.526,3.526,0,0,1,.686,2.332v.451H75.779a2.254,2.254,0,0,0,.548,1.515,1.722,1.722,0,0,0,1.333.577A1.888,1.888,0,0,0,78.633,12a2.444,2.444,0,0,0,.7-.621l.662.516A2.662,2.662,0,0,1,77.6,13.117Zm-.135-5.684a1.446,1.446,0,0,0-1.1.478,2.321,2.321,0,0,0-.551,1.339H78.99V9.168a2.065,2.065,0,0,0-.445-1.28A1.361,1.361,0,0,0,77.467,7.434Zm7.553,3.885a.8.8,0,0,0-.331-.683,3.187,3.187,0,0,0-1.154-.419,5.457,5.457,0,0,1-1.307-.422,1.859,1.859,0,0,1-.715-.586,1.4,1.4,0,0,1-.231-.809,1.645,1.645,0,0,1,.659-1.318,2.574,2.574,0,0,1,1.685-.539,2.649,2.649,0,0,1,1.749.557,1.768,1.768,0,0,1,.671,1.424h-1.09a.979.979,0,0,0-.378-.768,1.416,1.416,0,0,0-.952-.322,1.482,1.482,0,0,0-.926.258.812.812,0,0,0-.334.674.658.658,0,0,0,.311.592,3.821,3.821,0,0,0,1.122.381,5.847,5.847,0,0,1,1.315.434,1.919,1.919,0,0,1,.747.606,1.491,1.491,0,0,1,.243.864,1.623,1.623,0,0,1-.68,1.362,2.851,2.851,0,0,1-1.764.513,3.193,3.193,0,0,1-1.348-.27,2.192,2.192,0,0,1-.917-.753,1.815,1.815,0,0,1-.331-1.046h1.084a1.122,1.122,0,0,0,.437.864,1.693,1.693,0,0,0,1.075.319,1.748,1.748,0,0,0,.987-.249A.765.765,0,0,0,85.02,11.318ZM91.506,6.66l.029.7a2.341,2.341,0,0,1,1.881-.82,1.813,1.813,0,0,1,1.811,1.02,2.4,2.4,0,0,1,.823-.738,2.431,2.431,0,0,1,1.2-.281q2.086,0,2.121,2.209V13H98.285V8.816A1.456,1.456,0,0,0,97.975,7.8a1.368,1.368,0,0,0-1.043-.337,1.437,1.437,0,0,0-1,.36,1.462,1.462,0,0,0-.463.97V13h-1.09V8.846a1.209,1.209,0,0,0-1.354-1.383,1.45,1.45,0,0,0-1.459.908V13H90.48V6.66Zm13.412,5.713a2.3,2.3,0,0,1-1.857.744,1.971,1.971,0,0,1-1.544-.589,2.549,2.549,0,0,1-.536-1.743V6.66h1.084v4.1q0,1.441,1.172,1.441a1.623,1.623,0,0,0,1.652-.926V6.66h1.084V13h-1.031Zm5.332.744a2.77,2.77,0,0,1-2.1-.847,3.142,3.142,0,0,1-.809-2.265v-.2a3.8,3.8,0,0,1,.36-1.685,2.811,2.811,0,0,1,1.008-1.16,2.534,2.534,0,0,1,1.4-.419,2.374,2.374,0,0,1,1.922.814,3.526,3.526,0,0,1,.686,2.332v.451h-4.295a2.254,2.254,0,0,0,.548,1.515,1.722,1.722,0,0,0,1.333.577,1.888,1.888,0,0,0,.973-.234,2.444,2.444,0,0,0,.7-.621l.662.516A2.662,2.662,0,0,1,110.25,13.117Zm-.135-5.684a1.446,1.446,0,0,0-1.1.478,2.321,2.321,0,0,0-.551,1.339h3.176V9.168a2.065,2.065,0,0,0-.445-1.28A1.361,1.361,0,0,0,110.115,7.434Zm6.926.2a3.248,3.248,0,0,0-.533-.041,1.428,1.428,0,0,0-1.447.908V13h-1.084V6.66h1.055l.018.732a1.688,1.688,0,0,1,1.512-.85,1.107,1.107,0,0,1,.48.082Zm2.76-2.508V6.66h1.184V7.5H119.8v3.937a.88.88,0,0,0,.158.572.666.666,0,0,0,.539.191,2.624,2.624,0,0,0,.516-.07V13a3.161,3.161,0,0,1-.832.116,1.35,1.35,0,0,1-1.1-.439,1.888,1.888,0,0,1-.369-1.248V7.5h-1.154V6.66h1.154V5.125ZM126.164,13a2.277,2.277,0,0,1-.152-.668,2.419,2.419,0,0,1-1.8.785,2.238,2.238,0,0,1-1.538-.53,1.716,1.716,0,0,1-.6-1.345,1.792,1.792,0,0,1,.753-1.538,3.55,3.55,0,0,1,2.118-.548h1.055v-.5a1.217,1.217,0,0,0-.34-.905,1.366,1.366,0,0,0-1-.337,1.581,1.581,0,0,0-.973.293.863.863,0,0,0-.393.709H122.2a1.5,1.5,0,0,1,.337-.917,2.3,2.3,0,0,1,.914-.7,3.075,3.075,0,0,1,1.269-.258,2.506,2.506,0,0,1,1.717.548,1.976,1.976,0,0,1,.645,1.509v2.918a3.567,3.567,0,0,0,.223,1.389V13Zm-1.8-.826a1.905,1.905,0,0,0,.967-.264,1.6,1.6,0,0,0,.662-.686v-1.3h-.85q-1.992,0-1.992,1.166a.987.987,0,0,0,.34.8A1.306,1.306,0,0,0,124.365,12.174Zm8.1-.855a.8.8,0,0,0-.331-.683,3.187,3.187,0,0,0-1.154-.419,5.457,5.457,0,0,1-1.307-.422,1.859,1.859,0,0,1-.715-.586,1.4,1.4,0,0,1-.231-.809,1.645,1.645,0,0,1,.659-1.318,2.574,2.574,0,0,1,1.685-.539,2.649,2.649,0,0,1,1.749.557,1.768,1.768,0,0,1,.671,1.424H132.4a.979.979,0,0,0-.378-.768,1.416,1.416,0,0,0-.952-.322,1.482,1.482,0,0,0-.926.258.812.812,0,0,0-.334.674.658.658,0,0,0,.311.592,3.821,3.821,0,0,0,1.122.381,5.847,5.847,0,0,1,1.315.434,1.919,1.919,0,0,1,.747.606,1.491,1.491,0,0,1,.243.864,1.623,1.623,0,0,1-.68,1.362,2.851,2.851,0,0,1-1.764.513,3.193,3.193,0,0,1-1.348-.27,2.192,2.192,0,0,1-.917-.753,1.815,1.815,0,0,1-.331-1.046H129.6a1.122,1.122,0,0,0,.437.864,1.693,1.693,0,0,0,1.075.319,1.748,1.748,0,0,0,.987-.249A.765.765,0,0,0,132.469,11.318Z" transform="translate(-6507 1211.804)" fill="#12263f"/>
      <path id="Path_1485030" data-name="Path 1485030" d="M3.258,5.625l3.719,9.281L10.7,5.625h1.945V17h-1.5V12.57l.141-4.781L7.547,17H6.4L2.672,7.813,2.82,12.57V17H1.32V5.625ZM14.68,12.7a4.993,4.993,0,0,1,.488-2.234A3.643,3.643,0,0,1,16.527,8.93a3.7,3.7,0,0,1,1.988-.539,3.565,3.565,0,0,1,2.793,1.2,4.6,4.6,0,0,1,1.066,3.18v.1a5.036,5.036,0,0,1-.473,2.215,3.589,3.589,0,0,1-1.352,1.527,3.743,3.743,0,0,1-2.02.547,3.556,3.556,0,0,1-2.785-1.2A4.575,4.575,0,0,1,14.68,12.8Zm1.453.172a3.616,3.616,0,0,0,.652,2.258,2.211,2.211,0,0,0,3.5-.012A3.955,3.955,0,0,0,20.93,12.7a3.61,3.61,0,0,0-.66-2.254,2.1,2.1,0,0,0-1.754-.863,2.075,2.075,0,0,0-1.727.852A3.925,3.925,0,0,0,16.133,12.867ZM28.273,9.844a4.331,4.331,0,0,0-.711-.055A1.9,1.9,0,0,0,25.633,11v6H24.188V8.547h1.406l.023.977a2.251,2.251,0,0,1,2.016-1.133,1.477,1.477,0,0,1,.641.109ZM31.953,6.5V8.547h1.578V9.664H31.953v5.249a1.173,1.173,0,0,0,.211.763.888.888,0,0,0,.719.254,3.5,3.5,0,0,0,.688-.094V17a4.215,4.215,0,0,1-1.109.155A1.8,1.8,0,0,1,31,16.57a2.517,2.517,0,0,1-.492-1.664V9.664H28.969V8.547h1.539V6.5ZM40.438,17a3.036,3.036,0,0,1-.2-.891,3.225,3.225,0,0,1-2.406,1.047,2.984,2.984,0,0,1-2.051-.707,2.287,2.287,0,0,1-.8-1.793,2.39,2.39,0,0,1,1-2.051,4.733,4.733,0,0,1,2.824-.73h1.406v-.664A1.623,1.623,0,0,0,39.758,10a1.821,1.821,0,0,0-1.336-.449,2.107,2.107,0,0,0-1.3.391,1.151,1.151,0,0,0-.523.945H35.148A2,2,0,0,1,35.6,9.668a3.066,3.066,0,0,1,1.219-.934,4.1,4.1,0,0,1,1.691-.344,3.342,3.342,0,0,1,2.289.73,2.635,2.635,0,0,1,.859,2.012v3.891a4.757,4.757,0,0,0,.3,1.852V17Zm-2.4-1.1a2.54,2.54,0,0,0,1.289-.352,2.127,2.127,0,0,0,.883-.914V12.9H39.078q-2.656,0-2.656,1.555a1.316,1.316,0,0,0,.453,1.063A1.742,1.742,0,0,0,38.039,15.9ZM45.492,17H44.047V5h1.445Zm3.883,0H47.93V8.547h1.445ZM47.813,6.3a.863.863,0,0,1,.215-.594.807.807,0,0,1,.637-.242.819.819,0,0,1,.641.242.854.854,0,0,1,.219.594.826.826,0,0,1-.219.586.834.834,0,0,1-.641.234.821.821,0,0,1-.637-.234A.834.834,0,0,1,47.813,6.3Zm3.523,6.4a4.952,4.952,0,0,1,.922-3.129,3.137,3.137,0,0,1,4.766-.168V5h1.445V17H57.141l-.07-.906a2.943,2.943,0,0,1-2.414,1.063,2.887,2.887,0,0,1-2.395-1.2,5.008,5.008,0,0,1-.926-3.141Zm1.445.164a3.749,3.749,0,0,0,.594,2.25,1.92,1.92,0,0,0,1.641.813A2.108,2.108,0,0,0,57.023,14.7V10.813a2.125,2.125,0,0,0-1.992-1.2,1.929,1.929,0,0,0-1.656.82A4.128,4.128,0,0,0,52.781,12.867ZM65.93,17a3.036,3.036,0,0,1-.2-.891,3.225,3.225,0,0,1-2.406,1.047,2.984,2.984,0,0,1-2.051-.707,2.287,2.287,0,0,1-.8-1.793,2.39,2.39,0,0,1,1-2.051,4.733,4.733,0,0,1,2.824-.73H65.7v-.664A1.623,1.623,0,0,0,65.25,10a1.821,1.821,0,0,0-1.336-.449,2.107,2.107,0,0,0-1.3.391,1.151,1.151,0,0,0-.523.945H60.641a2,2,0,0,1,.449-1.223,3.066,3.066,0,0,1,1.219-.934A4.1,4.1,0,0,1,64,8.391a3.342,3.342,0,0,1,2.289.73,2.635,2.635,0,0,1,.859,2.012v3.891a4.757,4.757,0,0,0,.3,1.852V17Zm-2.4-1.1a2.54,2.54,0,0,0,1.289-.352,2.127,2.127,0,0,0,.883-.914V12.9H64.57q-2.656,0-2.656,1.555a1.316,1.316,0,0,0,.453,1.063A1.742,1.742,0,0,0,63.531,15.9Zm5.531-3.2a4.952,4.952,0,0,1,.922-3.129,3.137,3.137,0,0,1,4.766-.168V5H76.2V17H74.867l-.07-.906a2.943,2.943,0,0,1-2.414,1.063,2.887,2.887,0,0,1-2.395-1.2,5.008,5.008,0,0,1-.926-3.141Zm1.445.164a3.749,3.749,0,0,0,.594,2.25,1.92,1.92,0,0,0,1.641.813A2.108,2.108,0,0,0,74.75,14.7V10.813a2.125,2.125,0,0,0-1.992-1.2,1.929,1.929,0,0,0-1.656.82A4.128,4.128,0,0,0,70.508,12.867Zm11.836-.484a12.079,12.079,0,0,1,.473-3.391,9.849,9.849,0,0,1,1.41-2.953,6,6,0,0,1,1.945-1.875l.3.953A6.222,6.222,0,0,0,84.6,7.789a11.583,11.583,0,0,0-.8,4.023l-.008.664a11.643,11.643,0,0,0,1.1,5.234,6.252,6.252,0,0,0,1.578,2.078l-.3.883a6.192,6.192,0,0,1-1.984-1.937A10.859,10.859,0,0,1,82.344,12.383Zm5.25-4.57a2.308,2.308,0,0,1,.652-1.687,2.451,2.451,0,0,1,3.359,0,2.388,2.388,0,0,1,.645,1.73v.555A2.278,2.278,0,0,1,91.6,10.1a2.249,2.249,0,0,1-1.66.652,2.3,2.3,0,0,1-1.68-.652,2.326,2.326,0,0,1-.664-1.738Zm1.078.6a1.478,1.478,0,0,0,.344,1.006,1.16,1.16,0,0,0,.922.4,1.137,1.137,0,0,0,.895-.384,1.527,1.527,0,0,0,.34-1.049V7.808a1.515,1.515,0,0,0-.336-1.01,1.246,1.246,0,0,0-1.828,0,1.563,1.563,0,0,0-.336,1.041Zm4.461,5.8a2.3,2.3,0,0,1,.652-1.684,2.467,2.467,0,0,1,3.355,0,2.355,2.355,0,0,1,.656,1.742v.555a2.3,2.3,0,0,1-.652,1.684,2.244,2.244,0,0,1-1.668.66,2.3,2.3,0,0,1-1.68-.652,2.326,2.326,0,0,1-.664-1.738Zm1.078.606a1.49,1.49,0,0,0,.344,1.014,1.16,1.16,0,0,0,.922.4,1.129,1.129,0,0,0,.9-.388,1.553,1.553,0,0,0,.336-1.053v-.579a1.485,1.485,0,0,0-.34-1.01,1.249,1.249,0,0,0-1.812,0,1.508,1.508,0,0,0-.348,1.045Zm-3.945,1.323-.82-.516L95,6.734l.82.516Zm12.656-3.68a12.084,12.084,0,0,1-.457,3.34,9.876,9.876,0,0,1-1.4,2.949,6.127,6.127,0,0,1-1.973,1.922l-.3-.883a6.281,6.281,0,0,0,1.934-2.863,12.387,12.387,0,0,0,.746-4.309v-.25a12.861,12.861,0,0,0-.344-3.051,10.3,10.3,0,0,0-.957-2.527,5.838,5.838,0,0,0-1.379-1.742l.3-.883a6.1,6.1,0,0,1,1.965,1.906,9.9,9.9,0,0,1,1.4,2.945A12.363,12.363,0,0,1,102.922,12.461Zm12.8-1.82H109.2V9.383h6.516Zm0,3.242H109.2v-1.25h6.516Z" transform="translate(-6654.5 1223)" fill="#12263f"/>
      <path id="Path_1485033" data-name="Path 1485033" d="M3.93,11.633,5.8,8.547H7.492l-2.766,4.18L7.578,17H5.906L3.953,13.836,2,17H.32l2.852-4.273L.406,8.547H2.078ZM17.586,17H16.133V7.367l-2.914,1.07V7.125L17.359,5.57h.227Zm11.367-4.852a6.61,6.61,0,0,1-.867,3.773,3.084,3.084,0,0,1-2.711,1.234,3.107,3.107,0,0,1-2.7-1.207,6.274,6.274,0,0,1-.906-3.605v-1.93a6.463,6.463,0,0,1,.867-3.727,3.108,3.108,0,0,1,2.719-1.219,3.136,3.136,0,0,1,2.7,1.176,6.237,6.237,0,0,1,.891,3.629Zm-1.445-1.977A5.3,5.3,0,0,0,26.992,7.5a1.775,1.775,0,0,0-1.633-.84,1.751,1.751,0,0,0-1.617.836,5.171,5.171,0,0,0-.523,2.57v2.313a5.381,5.381,0,0,0,.535,2.723,1.771,1.771,0,0,0,1.621.879,1.747,1.747,0,0,0,1.59-.828,5.186,5.186,0,0,0,.543-2.609Zm10.43,1.977a6.61,6.61,0,0,1-.867,3.773,3.084,3.084,0,0,1-2.711,1.234,3.107,3.107,0,0,1-2.7-1.207,6.274,6.274,0,0,1-.906-3.605v-1.93a6.463,6.463,0,0,1,.867-3.727,3.108,3.108,0,0,1,2.719-1.219,3.136,3.136,0,0,1,2.7,1.176,6.237,6.237,0,0,1,.891,3.629Zm-1.445-1.977A5.3,5.3,0,0,0,35.977,7.5a1.775,1.775,0,0,0-1.633-.84,1.751,1.751,0,0,0-1.617.836,5.171,5.171,0,0,0-.523,2.57v2.313a5.381,5.381,0,0,0,.535,2.723,1.771,1.771,0,0,0,1.621.879,1.747,1.747,0,0,0,1.59-.828,5.186,5.186,0,0,0,.543-2.609Z" transform="translate(-6343.042 1223)" fill="#12263f"/>
      <path id="Path_1485032" data-name="Path 1485032" d="M7.547,13H6.416L2.121,6.426V13H.99V4.469H2.121l4.307,6.6v-6.6H7.547Zm5.742-.627a2.3,2.3,0,0,1-1.857.744,1.971,1.971,0,0,1-1.544-.589,2.549,2.549,0,0,1-.536-1.743V6.66h1.084v4.1q0,1.441,1.172,1.441a1.623,1.623,0,0,0,1.652-.926V6.66h1.084V13H13.313ZM12.41,4h1.313l-1.57,1.723-.873,0Zm4.6,2.66.029.7a2.341,2.341,0,0,1,1.881-.82,1.813,1.813,0,0,1,1.811,1.02,2.4,2.4,0,0,1,.823-.738,2.431,2.431,0,0,1,1.2-.281q2.086,0,2.121,2.209V13H23.789V8.816A1.456,1.456,0,0,0,23.479,7.8a1.368,1.368,0,0,0-1.043-.337,1.437,1.437,0,0,0-1,.36,1.462,1.462,0,0,0-.463.97V13h-1.09V8.846a1.209,1.209,0,0,0-1.354-1.383,1.45,1.45,0,0,0-1.459.908V13H15.984V6.66Zm12.129,6.457a2.77,2.77,0,0,1-2.1-.847,3.142,3.142,0,0,1-.809-2.265v-.2a3.8,3.8,0,0,1,.36-1.685A2.811,2.811,0,0,1,27.6,6.962,2.534,2.534,0,0,1,29,6.543a2.374,2.374,0,0,1,1.922.814,3.526,3.526,0,0,1,.686,2.332v.451H27.316a2.254,2.254,0,0,0,.548,1.515,1.722,1.722,0,0,0,1.333.577A1.888,1.888,0,0,0,30.17,12a2.444,2.444,0,0,0,.7-.621l.662.516A2.662,2.662,0,0,1,29.139,13.117ZM29,7.434a1.446,1.446,0,0,0-1.1.478,2.321,2.321,0,0,0-.551,1.339h3.176V9.168a2.065,2.065,0,0,0-.445-1.28A1.361,1.361,0,0,0,29,7.434Zm6.926.2a3.248,3.248,0,0,0-.533-.041,1.428,1.428,0,0,0-1.447.908V13H32.865V6.66H33.92l.018.732a1.688,1.688,0,0,1,1.512-.85,1.107,1.107,0,0,1,.48.082Zm.592,2.139A3.745,3.745,0,0,1,36.888,8.1a2.732,2.732,0,0,1,1.02-1.148,2.775,2.775,0,0,1,1.491-.4,2.674,2.674,0,0,1,2.095.9,3.449,3.449,0,0,1,.8,2.385V9.9a3.777,3.777,0,0,1-.354,1.661,2.692,2.692,0,0,1-1.014,1.146,2.807,2.807,0,0,1-1.515.41,2.667,2.667,0,0,1-2.089-.9,3.432,3.432,0,0,1-.8-2.373Zm1.09.129a2.712,2.712,0,0,0,.489,1.693,1.658,1.658,0,0,0,2.622-.009,2.966,2.966,0,0,0,.486-1.813,2.708,2.708,0,0,0-.5-1.69A1.574,1.574,0,0,0,39.4,7.434a1.557,1.557,0,0,0-1.295.639A2.944,2.944,0,0,0,37.611,9.9ZM47.8,13H46.717V6.66H47.8ZM46.629,4.979a.647.647,0,0,1,.161-.445.6.6,0,0,1,.478-.182.614.614,0,0,1,.48.182.64.64,0,0,1,.164.445.619.619,0,0,1-.164.439.626.626,0,0,1-.48.176.616.616,0,0,1-.478-.176A.626.626,0,0,1,46.629,4.979ZM50.561,6.66l.035.8a2.31,2.31,0,0,1,1.9-.914q2.01,0,2.027,2.268V13H53.438V8.8a1.459,1.459,0,0,0-.313-1.014,1.256,1.256,0,0,0-.958-.328,1.564,1.564,0,0,0-.926.281,1.91,1.91,0,0,0-.621.738V13H49.535V6.66ZM57.334,13H56.25V6.66h1.084ZM56.162,4.979a.647.647,0,0,1,.161-.445.6.6,0,0,1,.478-.182.614.614,0,0,1,.48.182.64.64,0,0,1,.164.445.619.619,0,0,1-.164.439.626.626,0,0,1-.48.176.616.616,0,0,1-.478-.176A.626.626,0,0,1,56.162,4.979Zm5.449,7.254a1.561,1.561,0,0,0,1.014-.352,1.237,1.237,0,0,0,.48-.879h1.025a1.966,1.966,0,0,1-.375,1.037,2.47,2.47,0,0,1-.923.785,2.663,2.663,0,0,1-1.222.293,2.612,2.612,0,0,1-2.06-.864,3.442,3.442,0,0,1-.765-2.364V9.707a3.817,3.817,0,0,1,.34-1.646A2.588,2.588,0,0,1,60.1,6.941a2.771,2.771,0,0,1,1.5-.4,2.543,2.543,0,0,1,1.772.639,2.283,2.283,0,0,1,.753,1.658H63.105a1.494,1.494,0,0,0-.466-1.011,1.449,1.449,0,0,0-1.034-.4,1.517,1.517,0,0,0-1.28.595,2.793,2.793,0,0,0-.454,1.72v.205a2.737,2.737,0,0,0,.451,1.688A1.524,1.524,0,0,0,61.611,12.232ZM66.527,13H65.443V6.66h1.084ZM65.355,4.979a.647.647,0,0,1,.161-.445.6.6,0,0,1,.478-.182.614.614,0,0,1,.48.182.64.64,0,0,1,.164.445.619.619,0,0,1-.164.439.626.626,0,0,1-.48.176.616.616,0,0,1-.478-.176A.626.626,0,0,1,65.355,4.979ZM72.176,13a2.277,2.277,0,0,1-.152-.668,2.419,2.419,0,0,1-1.8.785,2.238,2.238,0,0,1-1.538-.53,1.716,1.716,0,0,1-.6-1.345A1.792,1.792,0,0,1,68.833,9.7a3.55,3.55,0,0,1,2.118-.548h1.055v-.5a1.217,1.217,0,0,0-.34-.905,1.366,1.366,0,0,0-1-.337,1.581,1.581,0,0,0-.973.293.863.863,0,0,0-.393.709h-1.09a1.5,1.5,0,0,1,.337-.917,2.3,2.3,0,0,1,.914-.7,3.075,3.075,0,0,1,1.269-.258,2.506,2.506,0,0,1,1.717.548A1.976,1.976,0,0,1,73.09,8.6v2.918a3.567,3.567,0,0,0,.223,1.389V13Zm-1.8-.826a1.905,1.905,0,0,0,.967-.264,1.6,1.6,0,0,0,.662-.686v-1.3h-.85q-1.992,0-1.992,1.166a.987.987,0,0,0,.34.8A1.306,1.306,0,0,0,70.377,12.174Zm5.59.826H74.883V4h1.084Zm4.441-3.223A3.714,3.714,0,0,1,81.1,7.431,2.352,2.352,0,0,1,84.674,7.3V4h1.084v9h-1l-.053-.68a2.208,2.208,0,0,1-1.811.8,2.165,2.165,0,0,1-1.8-.9,3.756,3.756,0,0,1-.694-2.355Zm1.084.123a2.812,2.812,0,0,0,.445,1.688,1.44,1.44,0,0,0,1.23.609,1.581,1.581,0,0,0,1.506-.926V8.359a1.593,1.593,0,0,0-1.494-.9,1.446,1.446,0,0,0-1.242.615A3.1,3.1,0,0,0,81.492,9.9Zm8.578,3.217a2.77,2.77,0,0,1-2.1-.847,3.142,3.142,0,0,1-.809-2.265v-.2a3.8,3.8,0,0,1,.36-1.685,2.811,2.811,0,0,1,1.008-1.16,2.534,2.534,0,0,1,1.4-.419,2.374,2.374,0,0,1,1.922.814,3.526,3.526,0,0,1,.686,2.332v.451H88.248a2.254,2.254,0,0,0,.548,1.515,1.722,1.722,0,0,0,1.333.577A1.888,1.888,0,0,0,91.1,12a2.444,2.444,0,0,0,.7-.621l.662.516A2.662,2.662,0,0,1,90.07,13.117Zm-.135-5.684a1.446,1.446,0,0,0-1.1.478,2.321,2.321,0,0,0-.551,1.339h3.176V9.168a2.065,2.065,0,0,0-.445-1.28A1.361,1.361,0,0,0,89.936,7.434ZM100.682,13a2.277,2.277,0,0,1-.152-.668,2.419,2.419,0,0,1-1.8.785,2.238,2.238,0,0,1-1.538-.53,1.716,1.716,0,0,1-.6-1.345A1.792,1.792,0,0,1,97.339,9.7a3.55,3.55,0,0,1,2.118-.548h1.055v-.5a1.217,1.217,0,0,0-.34-.905,1.366,1.366,0,0,0-1-.337,1.581,1.581,0,0,0-.973.293.863.863,0,0,0-.393.709h-1.09a1.5,1.5,0,0,1,.337-.917,2.3,2.3,0,0,1,.914-.7,3.075,3.075,0,0,1,1.269-.258,2.506,2.506,0,0,1,1.717.548A1.976,1.976,0,0,1,101.6,8.6v2.918a3.567,3.567,0,0,0,.223,1.389V13Zm-1.8-.826a1.905,1.905,0,0,0,.967-.264,1.6,1.6,0,0,0,.662-.686v-1.3h-.85q-1.992,0-1.992,1.166a.987.987,0,0,0,.34.8A1.306,1.306,0,0,0,98.883,12.174Zm6.416-.645,1.57-4.869h1.107L105.7,13h-.826l-2.3-6.34h1.107Zm6.352,1.588a2.77,2.77,0,0,1-2.1-.847,3.142,3.142,0,0,1-.809-2.265v-.2a3.8,3.8,0,0,1,.36-1.685,2.811,2.811,0,0,1,1.008-1.16,2.534,2.534,0,0,1,1.4-.419,2.374,2.374,0,0,1,1.922.814,3.526,3.526,0,0,1,.686,2.332v.451h-4.295a2.254,2.254,0,0,0,.548,1.515,1.722,1.722,0,0,0,1.333.577,1.888,1.888,0,0,0,.973-.234,2.444,2.444,0,0,0,.7-.621l.662.516A2.662,2.662,0,0,1,111.65,13.117Zm-.135-5.684a1.446,1.446,0,0,0-1.1.478,2.321,2.321,0,0,0-.551,1.339h3.176V9.168a2.065,2.065,0,0,0-.445-1.28A1.361,1.361,0,0,0,111.516,7.434Zm7.553,3.885a.8.8,0,0,0-.331-.683,3.187,3.187,0,0,0-1.154-.419,5.457,5.457,0,0,1-1.307-.422,1.859,1.859,0,0,1-.715-.586,1.4,1.4,0,0,1-.231-.809,1.645,1.645,0,0,1,.659-1.318,2.574,2.574,0,0,1,1.685-.539,2.649,2.649,0,0,1,1.749.557,1.768,1.768,0,0,1,.671,1.424H119a.979.979,0,0,0-.378-.768,1.416,1.416,0,0,0-.952-.322,1.482,1.482,0,0,0-.926.258.812.812,0,0,0-.334.674.658.658,0,0,0,.311.592,3.821,3.821,0,0,0,1.122.381,5.847,5.847,0,0,1,1.315.434,1.919,1.919,0,0,1,.747.606,1.491,1.491,0,0,1,.243.864,1.623,1.623,0,0,1-.68,1.362,2.851,2.851,0,0,1-1.764.513,3.193,3.193,0,0,1-1.348-.27,2.192,2.192,0,0,1-.917-.753,1.815,1.815,0,0,1-.331-1.046H116.2a1.122,1.122,0,0,0,.437.864,1.693,1.693,0,0,0,1.075.319,1.748,1.748,0,0,0,.987-.249A.765.765,0,0,0,119.068,11.318Z" transform="translate(-6500 1239.196)" fill="#12263f"/>
      <line id="Line_759" data-name="Line 759" x2="155" transform="translate(-6517.5 1233.5)" fill="none" stroke="#707070" stroke-width="1"/>
    </g>
  </g>
</svg>
