<svg xmlns="http://www.w3.org/2000/svg" xmlns:xlink="http://www.w3.org/1999/xlink" width="118" height="118" viewBox="0 0 118 118">
  <defs>
    <filter id="Rectangle_411831" x="0" y="0" width="118" height="118" filterUnits="userSpaceOnUse">
      <feOffset dy="3" input="SourceAlpha"/>
      <feGaussianBlur stdDeviation="3" result="blur"/>
      <feFlood flood-opacity="0.161"/>
      <feComposite operator="in" in2="blur"/>
      <feComposite in="SourceGraphic"/>
    </filter>
  </defs>
  <g id="Group_1227937" data-name="Group 1227937" transform="translate(-326.781 -3852)">
    <g transform="matrix(1, 0, 0, 1, 326.78, 3852)" filter="url(#Rectangle_411831)">
      <g id="Rectangle_411831-2" data-name="Rectangle 411831" transform="translate(9 6)" fill="#ffc94a" stroke="#fff" stroke-width="2">
        <path d="M5,0H68a32,32,0,0,1,32,32V95a5,5,0,0,1-5,5H32A32,32,0,0,1,0,68V5A5,5,0,0,1,5,0Z" stroke="none"/>
        <path d="M5,1H68A31,31,0,0,1,99,32V95a4,4,0,0,1-4,4H32A31,31,0,0,1,1,68V5A4,4,0,0,1,5,1Z" fill="none"/>
      </g>
    </g>
    <g id="Group_1227940" data-name="Group 1227940" transform="translate(7095.753 10821.36)">
      <path id="Path_1484848" data-name="Path 1484848" d="M26.468,40.1V8.337a8.328,8.328,0,0,0-14.16-5.954A8.3,8.3,0,0,0,9.925,8.205V39.966A18.2,18.2,0,0,0,18,74.375a18.02,18.02,0,0,0,18.395-18A18.372,18.372,0,0,0,26.468,40.1M18.131,66.3a9.925,9.925,0,1,1,9.925-9.925A10,10,0,0,1,18.131,66.3" transform="translate(-6740.542 -6950.551)" fill="#d8f2f1" stroke="#000" stroke-linecap="round" stroke-linejoin="round" stroke-width="2"/>
      <path id="Path_1484849" data-name="Path 1484849" d="M37.945,16.792a6.485,6.485,0,1,1-6.485,6.485,6.5,6.5,0,0,1,6.485-6.485" transform="translate(-6730.846 -6945.375)" fill="#ffd24d" stroke="#000" stroke-linecap="round" stroke-linejoin="round" stroke-width="1"/>
      <path id="Path_1484850" data-name="Path 1484850" d="M36.729,17.223A1.249,1.249,0,0,1,35.406,15.9V12.856a1.323,1.323,0,1,1,2.647,0V15.9a1.327,1.327,0,0,1-1.324,1.324" transform="translate(-6729.629 -6946.996)" fill="#e2b23b" stroke="#000" stroke-linecap="round" stroke-linejoin="round" stroke-width="1"/>
      <path id="Path_1484851" data-name="Path 1484851" d="M40.167,18.038a1.2,1.2,0,0,1-.662-.132,1.464,1.464,0,0,1-.529-1.852l1.588-2.647a1.363,1.363,0,0,1,2.382,1.324l-1.588,2.647a1.392,1.392,0,0,1-1.192.661" transform="translate(-6728.568 -6946.621)" fill="#e2b23b" stroke="#000" stroke-linecap="round" stroke-linejoin="round" stroke-width="1"/>
      <path id="Path_1484852" data-name="Path 1484852" d="M42.711,20.331a1.579,1.579,0,0,1-1.192-.662,1.339,1.339,0,0,1,.53-1.852L44.7,16.229a1.363,1.363,0,1,1,1.324,2.384L43.373,20.2a1,1,0,0,1-.662.132" transform="translate(-6727.803 -6945.606)" fill="#e2b23b" stroke="#000" stroke-linecap="round" stroke-linejoin="round" stroke-width="1"/>
      <path id="Path_1484853" data-name="Path 1484853" d="M46.784,23.385H43.608a1.323,1.323,0,0,1,0-2.647h3.176a1.323,1.323,0,1,1,0,2.647" transform="translate(-6727.509 -6944.159)" fill="#e2b23b" stroke="#000" stroke-linecap="round" stroke-linejoin="round" stroke-width="1"/>
      <path id="Path_1484854" data-name="Path 1484854" d="M45.444,28.411a1.208,1.208,0,0,1-.662-.131L42.136,26.69a1.363,1.363,0,1,1,1.324-2.382L46.106,25.9a1.465,1.465,0,0,1,.53,1.852,1.828,1.828,0,0,1-1.192.662" transform="translate(-6727.758 -6943.098)" fill="#e2b23b" stroke="#000" stroke-linecap="round" stroke-linejoin="round" stroke-width="1"/>
      <path id="Path_1484855" data-name="Path 1484855" d="M41.769,32.113a1.577,1.577,0,0,1-1.19-.662L38.99,28.8a1.362,1.362,0,1,1,2.382-1.323l1.588,2.645a1.339,1.339,0,0,1-.53,1.852c-.264,0-.4.133-.662.133" transform="translate(-6728.582 -6942.301)" fill="#e2b23b" stroke="#000" stroke-linecap="round" stroke-linejoin="round" stroke-width="1"/>
      <path id="Path_1484856" data-name="Path 1484856" d="M36.729,33.439a1.249,1.249,0,0,1-1.323-1.324V28.94a1.323,1.323,0,1,1,2.647,0v3.175a1.25,1.25,0,0,1-1.324,1.324" transform="translate(-6729.629 -6942.039)" fill="#e2b23b" stroke="#000" stroke-linecap="round" stroke-linejoin="round" stroke-width="1"/>
      <path id="Path_1484857" data-name="Path 1484857" d="M32.075,32.1a1.181,1.181,0,0,1-.661-.133,1.464,1.464,0,0,1-.53-1.852l1.588-2.645a1.362,1.362,0,0,1,2.382,1.323l-1.588,2.647a1.39,1.39,0,0,1-1.192.662" transform="translate(-6731.063 -6942.287)" fill="#e2b23b" stroke="#000" stroke-linecap="round" stroke-linejoin="round" stroke-width="1"/>
      <path id="Path_1484858" data-name="Path 1484858" d="M28.751,28.424a1.579,1.579,0,0,1-1.192-.662,1.339,1.339,0,0,1,.53-1.852l2.647-1.588A1.363,1.363,0,1,1,32.059,26.7l-2.647,1.589a1.457,1.457,0,0,1-.662.131" transform="translate(-6732.105 -6943.111)" fill="#e2b23b" stroke="#000" stroke-linecap="round" stroke-linejoin="round" stroke-width="1"/>
      <path id="Path_1484859" data-name="Path 1484859" d="M30.568,23.385H27.524a1.323,1.323,0,0,1,0-2.647h3.044a1.25,1.25,0,0,1,1.323,1.323,1.326,1.326,0,0,1-1.323,1.324" transform="translate(-6732.466 -6944.159)" fill="#e2b23b" stroke="#000" stroke-linecap="round" stroke-linejoin="round" stroke-width="1"/>
      <path id="Path_1484860" data-name="Path 1484860" d="M31.383,20.318a1.2,1.2,0,0,1-.662-.132L28.075,18.6a1.469,1.469,0,0,1-.53-1.855,1.468,1.468,0,0,1,1.854-.529L32.045,17.8a1.465,1.465,0,0,1,.53,1.852,1.579,1.579,0,0,1-1.192.662" transform="translate(-6732.091 -6945.592)" fill="#e2b23b" stroke="#000" stroke-linecap="round" stroke-linejoin="round" stroke-width="1"/>
      <path id="Path_1484861" data-name="Path 1484861" d="M33.677,18.052a1.581,1.581,0,0,1-1.192-.661L30.9,14.745a1.363,1.363,0,0,1,2.382-1.324l1.588,2.647a1.338,1.338,0,0,1-.53,1.852c-.264,0-.4.132-.661.132" transform="translate(-6731.077 -6946.635)" fill="#e2b23b" stroke="#000" stroke-linecap="round" stroke-linejoin="round" stroke-width="1"/>
      <path id="Path_1484862" data-name="Path 1484862" d="M17.573,15.783H14.264a1.72,1.72,0,0,1,0-3.441h3.308a1.752,1.752,0,0,1,1.72,1.719,1.669,1.669,0,0,1-1.72,1.722" transform="translate(-6736.676 -6946.747)" fill="#9fcec9" stroke="#000" stroke-linecap="round" stroke-linejoin="round" stroke-width="1"/>
      <path id="Path_1484863" data-name="Path 1484863" d="M17.573,19.626H14.264a1.72,1.72,0,0,1,0-3.441h3.308a1.72,1.72,0,0,1,0,3.441" transform="translate(-6736.676 -6945.562)" fill="#9fcec9" stroke="#000" stroke-linecap="round" stroke-linejoin="round" stroke-width="1"/>
      <path id="Path_1484864" data-name="Path 1484864" d="M17.573,23.37H14.264a1.72,1.72,0,0,1,0-3.441h3.308a1.752,1.752,0,0,1,1.72,1.719,1.669,1.669,0,0,1-1.72,1.722" transform="translate(-6736.676 -6944.408)" fill="#9fcec9" stroke="#000" stroke-linecap="round" stroke-linejoin="round" stroke-width="1"/>
      <path id="Path_1484865" data-name="Path 1484865" d="M17.573,27.213H14.264a1.72,1.72,0,0,1,0-3.441h3.308a1.72,1.72,0,0,1,0,3.441" transform="translate(-6736.676 -6943.224)" fill="#9fcec9" stroke="#000" stroke-linecap="round" stroke-linejoin="round" stroke-width="1"/>
      <path id="Path_1484866" data-name="Path 1484866" d="M17.573,30.956H14.264a1.72,1.72,0,0,1,0-3.441h3.308a1.752,1.752,0,0,1,1.72,1.72,1.668,1.668,0,0,1-1.72,1.72" transform="translate(-6736.676 -6942.07)" fill="#9fcec9" stroke="#000" stroke-linecap="round" stroke-linejoin="round" stroke-width="1"/>
      <path id="Path_1484867" data-name="Path 1484867" d="M15.044,48.427a5.027,5.027,0,0,1-5.029-5.03,1.72,1.72,0,0,1,3.441,0,1.752,1.752,0,0,0,1.72,1.722,1.752,1.752,0,0,1,1.72,1.72,1.855,1.855,0,0,1-1.852,1.588" transform="translate(-6737.455 -6937.705)" fill="#d8f2f1" stroke="#000" stroke-linecap="round" stroke-linejoin="round" stroke-width="2"/>
      <path id="Path_1484868" data-name="Path 1484868" d="M15.985,44.307V9.106a1.72,1.72,0,1,0-3.441,0v35.2a6.93,6.93,0,0,1,1.72-.133,7.484,7.484,0,0,1,1.72.133" transform="translate(-6736.676 -6948.275)" fill="#b2dbd8" stroke="#000" stroke-linecap="round" stroke-linejoin="round" stroke-width="1"/>
    </g>
  </g>
</svg>
