<svg xmlns="http://www.w3.org/2000/svg" xmlns:xlink="http://www.w3.org/1999/xlink" width="118" height="118" viewBox="0 0 118 118">
  <defs>
    <filter id="Rectangle_411831" x="0" y="0" width="118" height="118" filterUnits="userSpaceOnUse">
      <feOffset dy="3" input="SourceAlpha"/>
      <feGaussianBlur stdDeviation="3" result="blur"/>
      <feFlood flood-opacity="0.161"/>
      <feComposite operator="in" in2="blur"/>
      <feComposite in="SourceGraphic"/>
    </filter>
  </defs>
  <g id="Group_1227943" data-name="Group 1227943" transform="translate(-326.781 -3852)">
    <g transform="matrix(1, 0, 0, 1, 326.78, 3852)" filter="url(#Rectangle_411831)">
      <g id="Rectangle_411831-2" data-name="Rectangle 411831" transform="translate(9 6)" fill="#ffc94a" stroke="#fff" stroke-width="2">
        <path d="M5,0H68a32,32,0,0,1,32,32V95a5,5,0,0,1-5,5H32A32,32,0,0,1,0,68V5A5,5,0,0,1,5,0Z" stroke="none"/>
        <path d="M5,1H68A31,31,0,0,1,99,32V95a4,4,0,0,1-4,4H32A31,31,0,0,1,1,68V5A4,4,0,0,1,5,1Z" fill="none"/>
      </g>
    </g>
    <g id="Group_1227948" data-name="Group 1227948" transform="translate(6036.14 10821.831)">
      <path id="Path_1484922" data-name="Path 1484922" d="M35.61,7.518v6.068H6.855v-9.1h9.1a5.346,5.346,0,0,1,10.552,0h9.1Z" transform="translate(-5671.591 -6946.278)" fill="#525463" stroke="#000" stroke-linecap="round" stroke-linejoin="round" stroke-width="1"/>
      <path id="Path_1484923" data-name="Path 1484923" d="M46.691,5.748V63.122H0V5.748H9.1v6.066H37.722V5.748ZM40.756,44.921H27.17V57.055H40.756Zm0-27.172H18.07v9.1H40.756Z" transform="translate(-5673.704 -6944.507)" fill="#d1fefb" stroke="#000" stroke-linecap="round" stroke-linejoin="round" stroke-width="1"/>
      <path id="Path_1484924" data-name="Path 1484924" d="M2.242,7.594H8.969V5.747H0V63.122H2.242Z" transform="translate(-5673.704 -6944.507)" fill="#8dd3cb" stroke="#000" stroke-linecap="round" stroke-linejoin="round" stroke-width="1"/>
      <rect id="Rectangle_414894" data-name="Rectangle 414894" width="13.586" height="12.134" transform="translate(-5646.534 -6899.456)" fill="#f25e75"/>
      <path id="Path_1484925" data-name="Path 1484925" d="M22.352,37.639h12V35.792H20.769v12h1.583Z" transform="translate(-5667.303 -6935.247)" fill="#e2506c"/>
      <rect id="Rectangle_414895" data-name="Rectangle 414895" width="22.686" height="9.101" transform="translate(-5655.634 -6926.626)" fill="#f25e75"/>
      <path id="Path_1484926" data-name="Path 1484926" d="M15.527,17.4H36.5V15.022H13.812v8.969h1.715Z" transform="translate(-5669.447 -6941.648)" fill="#e2506c"/>
      <path id="Path_1484928" data-name="Path 1484928" d="M7.1,23.5a1.134,1.134,0,0,1-1.056-1.056V16.381A1.134,1.134,0,0,1,7.1,15.325a1.134,1.134,0,0,1,1.054,1.056v6.066A1.04,1.04,0,0,1,7.1,23.5" transform="translate(-5671.84 -6941.555)" fill="#f25e75"/>
      <path id="Path_1484929" data-name="Path 1484929" d="M10.853,19.754H4.786a1.055,1.055,0,1,1,0-2.11h6.067A1.134,1.134,0,0,1,11.908,18.7a1.04,1.04,0,0,1-1.054,1.056" transform="translate(-5672.555 -6940.84)" fill="#f25e75"/>
      <path id="Path_1484930" data-name="Path 1484930" d="M18.524,37.1h-9.1a1.055,1.055,0,0,1,0-2.11h9.1a1.055,1.055,0,1,1,0,2.11" transform="translate(-5671.125 -6935.495)" fill="#8dd3cb"/>
      <path id="Path_1484931" data-name="Path 1484931" d="M13.887,32.458h-9.1a1.055,1.055,0,1,1,0-2.11h9.1A1.135,1.135,0,0,1,14.943,31.4a1.041,1.041,0,0,1-1.056,1.054" transform="translate(-5672.555 -6936.925)" fill="#8dd3cb"/>
      <path id="Path_1484932" data-name="Path 1484932" d="M36.375,32.458h-21.1a1.055,1.055,0,1,1,0-2.11h21.1a1.055,1.055,0,1,1,0,2.11" transform="translate(-5669.323 -6936.925)" fill="#8dd3cb"/>
      <path id="Path_1484933" data-name="Path 1484933" d="M13.887,27.82h-9.1a1.055,1.055,0,1,1,0-2.11h9.1a1.136,1.136,0,0,1,1.056,1.056,1.041,1.041,0,0,1-1.056,1.054" transform="translate(-5672.555 -6938.354)" fill="#8dd3cb"/>
      <path id="Path_1484934" data-name="Path 1484934" d="M36.375,27.82h-21.1a1.055,1.055,0,1,1,0-2.11h21.1a1.055,1.055,0,1,1,0,2.11" transform="translate(-5669.323 -6938.354)" fill="#8dd3cb"/>
      <path id="Path_1484935" data-name="Path 1484935" d="M18.524,41.733h-9.1a1.055,1.055,0,0,1,0-2.11h9.1a1.055,1.055,0,1,1,0,2.11" transform="translate(-5671.125 -6934.066)" fill="#8dd3cb"/>
      <path id="Path_1484936" data-name="Path 1484936" d="M18.524,46.271h-9.1a1.055,1.055,0,0,1,0-2.11h9.1a1.135,1.135,0,0,1,1.056,1.054,1.042,1.042,0,0,1-1.056,1.056" transform="translate(-5671.125 -6932.667)" fill="#8dd3cb"/>
    </g>
  </g>
</svg>
