<svg xmlns="http://www.w3.org/2000/svg" xmlns:xlink="http://www.w3.org/1999/xlink" width="118" height="118" viewBox="0 0 118 118">
  <defs>
    <filter id="Rectangle_411831" x="0" y="0" width="118" height="118" filterUnits="userSpaceOnUse">
      <feOffset dy="3" input="SourceAlpha"/>
      <feGaussianBlur stdDeviation="3" result="blur"/>
      <feFlood flood-opacity="0.161"/>
      <feComposite operator="in" in2="blur"/>
      <feComposite in="SourceGraphic"/>
    </filter>
  </defs>
  <g id="Group_1227939" data-name="Group 1227939" transform="translate(-326.781 -3852)">
    <g transform="matrix(1, 0, 0, 1, 326.78, 3852)" filter="url(#Rectangle_411831)">
      <g id="Rectangle_411831-2" data-name="Rectangle 411831" transform="translate(9 6)" fill="#ffc94a" stroke="#fff" stroke-width="2">
        <path d="M5,0H68a32,32,0,0,1,32,32V95a5,5,0,0,1-5,5H32A32,32,0,0,1,0,68V5A5,5,0,0,1,5,0Z" stroke="none"/>
        <path d="M5,1H68A31,31,0,0,1,99,32V95a4,4,0,0,1-4,4H32A31,31,0,0,1,1,68V5A4,4,0,0,1,5,1Z" fill="none"/>
      </g>
    </g>
    <g id="Group_1227942" data-name="Group 1227942" transform="translate(6282.215 10809.273)">
      <path id="Path_1484880" data-name="Path 1484880" d="M50.44,47.492c1.678-3.914,2.573-13.868,2.573-18.229A31.116,31.116,0,0,0,50.44,16.623a8.438,8.438,0,0,1,.223-7.158c.671-1.341,2.013-4.25,1.007-5.256-.671-.671-2.013-.448-4.027.335a8.437,8.437,0,0,1-7.829-.558,24.219,24.219,0,0,0-26.619,0,8.437,8.437,0,0,1-7.829.558c-1.341-.558-3.579-1.342-4.25,0-.448.9,0,2.684,1.231,4.921a6.375,6.375,0,0,1,.783,2.461,8.96,8.96,0,0,1-.559,4.809A31.5,31.5,0,0,0,0,29.373C0,33.736.893,43.689,2.572,47.6a8.417,8.417,0,0,1-.223,7.157C-.113,59.459.67,61.7,5.368,59.682a8.44,8.44,0,0,1,7.829.559,24.219,24.219,0,0,0,26.619,0,8.44,8.44,0,0,1,7.829-.559c1.118.449,3.132,1.232,4.027.336,1.119-1.119-.336-3.915-1.007-5.257a8.7,8.7,0,0,1-.223-7.269" transform="translate(-5922.94 -6933.388)" fill="#a28671" stroke="#000" stroke-linecap="round" stroke-linejoin="round" stroke-width="2"/>
      <path id="Path_1484881" data-name="Path 1484881" d="M29.566,35.368h4.25a5.49,5.49,0,0,1-1.678,3.915,5.694,5.694,0,0,1-3.914,1.678h-4.25a5.734,5.734,0,0,1,5.592-5.593" transform="translate(-5920.408 -6929.652)" fill="#e2b23b" stroke="#000" stroke-linecap="round" stroke-linejoin="round" stroke-width="2"/>
      <path id="Path_1484882" data-name="Path 1484882" d="M29.566,17.666h4.25a5.487,5.487,0,0,1-1.678,3.914,5.694,5.694,0,0,1-3.914,1.678h-4.25a5.732,5.732,0,0,1,5.592-5.592" transform="translate(-5920.408 -6931.522)" fill="#e2b23b" stroke="#000" stroke-linecap="round" stroke-linejoin="round" stroke-width="2"/>
      <path id="Path_1484883" data-name="Path 1484883" d="M24.915,32.058H20.664a5.538,5.538,0,0,1-5.591-5.592h4.249a5.609,5.609,0,0,1,5.593,5.592" transform="translate(-5921.349 -6930.592)" fill="#e2b23b" stroke="#000" stroke-linecap="round" stroke-linejoin="round" stroke-width="2"/>
      <path id="Path_1484884" data-name="Path 1484884" d="M24.915,40.96H20.664a5.538,5.538,0,0,1-5.591-5.593h4.249a5.539,5.539,0,0,1,5.593,5.593" transform="translate(-5921.349 -6929.652)" fill="#ffd24d" stroke="#000" stroke-linecap="round" stroke-linejoin="round" stroke-width="2"/>
      <path id="Path_1484885" data-name="Path 1484885" d="M29.566,26.466h4.25a5.487,5.487,0,0,1-1.678,3.914,5.694,5.694,0,0,1-3.914,1.678h-4.25a5.732,5.732,0,0,1,5.592-5.592" transform="translate(-5920.408 -6930.592)" fill="#ffd24d" stroke="#000" stroke-linecap="round" stroke-linejoin="round" stroke-width="2"/>
      <path id="Path_1484886" data-name="Path 1484886" d="M24.915,23.257H20.664a5.538,5.538,0,0,1-5.591-5.592h4.249a5.538,5.538,0,0,1,5.593,5.592" transform="translate(-5921.349 -6931.522)" fill="#ffd24d" stroke="#000" stroke-linecap="round" stroke-linejoin="round" stroke-width="2"/>
      <path id="Path_1484887" data-name="Path 1484887" d="M36.785,31.216c0,.112.113.335.113.447a1.406,1.406,0,0,1-1.007,1.342,1.376,1.376,0,0,1-1.79-.894c0-.112-.111-.335-.111-.448A1.4,1.4,0,0,1,35,30.321c.112,0,.336-.112.447-.112a1.474,1.474,0,0,1,1.342,1.007" transform="translate(-5919.351 -6930.197)" fill="#60534a"/>
      <path id="Path_1484888" data-name="Path 1484888" d="M35.571,22.415c0,.112.113.335.113.447A1.406,1.406,0,0,1,34.677,24.2a1.375,1.375,0,0,1-1.79-.894c0-.112-.111-.336-.111-.448a1.4,1.4,0,0,1,1.006-1.342c.111,0,.336-.112.447-.112a1.567,1.567,0,0,1,1.342,1.007" transform="translate(-5919.479 -6931.126)" fill="#60534a"/>
      <path id="Path_1484889" data-name="Path 1484889" d="M29.2,48.918c0,.113.112.336.112.448A1.407,1.407,0,0,1,28.3,50.708a1.376,1.376,0,0,1-1.79-.894c0-.113-.111-.336-.111-.448a1.4,1.4,0,0,1,1.006-1.342c.112,0,.335-.112.447-.112A1.475,1.475,0,0,1,29.2,48.918" transform="translate(-5920.152 -6928.327)" fill="#60534a"/>
      <path id="Path_1484890" data-name="Path 1484890" d="M14.024,13.513c0,.111.113.336.113.447A1.406,1.406,0,0,1,13.13,15.3a1.376,1.376,0,0,1-1.79-.894c0-.112-.111-.335-.111-.448a1.4,1.4,0,0,1,1.006-1.342c.112,0,.336-.111.447-.111a1.472,1.472,0,0,1,1.342,1.006" transform="translate(-5921.754 -6932.067)" fill="#60534a"/>
      <path id="Path_1484891" data-name="Path 1484891" d="M13.619,31.316c0,.113.113.336.113.448a1.408,1.408,0,0,1-1.007,1.342,1.376,1.376,0,0,1-1.79-.9c0-.112-.112-.335-.112-.447a1.406,1.406,0,0,1,1.007-1.342c.112,0,.335-.112.447-.112a1.475,1.475,0,0,1,1.342,1.006" transform="translate(-5921.797 -6930.187)" fill="#60534a"/>
      <path id="Path_1484892" data-name="Path 1484892" d="M39.363,51.188a5.938,5.938,0,0,1-2.461-.671,1.381,1.381,0,0,1,1.006-2.573,2.569,2.569,0,0,0,1.008.335,8.31,8.31,0,0,0-.783-1.9,6.993,6.993,0,0,1-.226-6.152c1.008-2.348,1.678-8.835,1.678-12.079a20.655,20.655,0,0,0-1.678-8.277,1.352,1.352,0,0,1,2.461-1.119,23.9,23.9,0,0,1,1.9,9.4c0,3.131-.671,10.29-1.9,13.2a4.509,4.509,0,0,0,.113,3.8c.783,1.678,1.789,3.914.447,5.256-.223.671-.894.784-1.566.784" transform="translate(-5919.133 -6931.492)" fill="#8e725d"/>
      <path id="Path_1484893" data-name="Path 1484893" d="M25.877,53.027a18.012,18.012,0,0,1-10.066-3.021,4.525,4.525,0,0,0-4.139-.335c-.783.335-3.019,1.342-4.362,0s-.447-3.691.448-5.257a4.522,4.522,0,0,0,.112-3.8c-1.229-2.908-1.9-10.066-1.9-13.2a1.454,1.454,0,0,1,2.908,0c0,3.244.671,9.731,1.678,12.08a6.99,6.99,0,0,1-.223,6.151,13.824,13.824,0,0,0-.784,1.9,2.585,2.585,0,0,0,1.007-.336,6.824,6.824,0,0,1,6.71.559,15.471,15.471,0,0,0,8.5,2.573A1.481,1.481,0,0,1,27.219,51.8c.111.559-.559,1.231-1.342,1.231" transform="translate(-5922.31 -6930.646)" fill="#8e725d"/>
      <path id="Path_1484894" data-name="Path 1484894" d="M37.394,14.037a6.583,6.583,0,0,1-3.8-1.119,15.328,15.328,0,0,0-17,0,1.31,1.31,0,0,1-1.9-.447,1.309,1.309,0,0,1,.447-1.9A18.946,18.946,0,0,1,25.2,7.55a18.011,18.011,0,0,1,10.066,3.019,4.517,4.517,0,0,0,4.137.335,1.282,1.282,0,0,1,1.79.784,1.281,1.281,0,0,1-.782,1.789,10.865,10.865,0,0,1-3.021.559" transform="translate(-5921.414 -6932.59)" fill="#8e725d"/>
      <path id="Path_1484895" data-name="Path 1484895" d="M24.114,48.7a1.48,1.48,0,0,1-1.454-1.454V16.489a1.453,1.453,0,1,1,2.907,0V47.246A1.48,1.48,0,0,1,24.114,48.7" transform="translate(-5920.547 -6931.8)" fill="#60534a" stroke="#000" stroke-linecap="round" stroke-linejoin="round" stroke-width="2"/>
      <path id="Path_1484896" data-name="Path 1484896" d="M26.642,15.553A1.48,1.48,0,0,1,25.189,14.1V12.645a1.454,1.454,0,0,1,2.908,0V14.1a1.481,1.481,0,0,1-1.455,1.454" transform="translate(-5920.28 -6932.206)" fill="#60534a"/>
      <path id="Path_1484897" data-name="Path 1484897" d="M21.584,15.553A1.481,1.481,0,0,1,20.13,14.1V12.645a1.454,1.454,0,0,1,2.908,0V14.1a1.481,1.481,0,0,1-1.454,1.454" transform="translate(-5920.814 -6932.206)" fill="#60534a"/>
    </g>
  </g>
</svg>
