<svg xmlns="http://www.w3.org/2000/svg" xmlns:xlink="http://www.w3.org/1999/xlink" width="100" height="100" viewBox="0 0 100 100">
  <defs>
    <clipPath id="clip-path">
      <rect id="Rectangle_414771" data-name="Rectangle 414771" width="100" height="100" transform="translate(234.781 5763)" fill="#fff" opacity="0.48"/>
    </clipPath>
    <filter id="Rectangle_414770" x="-1" y="-5" width="73" height="117.092" filterUnits="userSpaceOnUse">
      <feOffset dy="3" input="SourceAlpha"/>
      <feGaussianBlur stdDeviation="3" result="blur"/>
      <feFlood flood-opacity="0.161"/>
      <feComposite operator="in" in2="blur"/>
      <feComposite in="SourceGraphic"/>
    </filter>
  </defs>
  <g id="Mask_Group_1099357" data-name="Mask Group 1099357" transform="translate(-234.781 -5763)" clip-path="url(#clip-path)">
    <g id="Group_1227647" data-name="Group 1227647" transform="translate(-9.068 -2.451)">
      <g transform="matrix(1, 0, 0, 1, 243.85, 5765.45)" filter="url(#Rectangle_414770)">
        <path id="Rectangle_414770-2" data-name="Rectangle 414770" d="M10,0H45A10,10,0,0,1,55,10V99.092a0,0,0,0,1,0,0H0a0,0,0,0,1,0,0V10A10,10,0,0,1,10,0Z" transform="translate(8 1)" fill="#96d6d6"/>
      </g>
      <g id="Layer_32" data-name="Layer 32" transform="translate(260.469 5778.277)">
        <path id="Path_1453017" data-name="Path 1453017" d="M15.641,9.766l-.849-.212a2.37,2.37,0,0,1-.174-4.546l1.935-.64.39-.779a2.875,2.875,0,0,1,5.143,0l.39.779a3.553,3.553,0,0,1,3.553,3.553,5.725,5.725,0,0,1-.994,3.223" transform="translate(2.213 0.184)" fill="#e73844"/>
        <path id="Path_1453018" data-name="Path 1453018" d="M60.7,24.791a2.782,2.782,0,0,1,2.417,2.759,3.164,3.164,0,0,1-1.749,2.83l-5.358,2.679a15.3,15.3,0,0,1-5.881,8.291H20.476L18.84,40.258a12.27,12.27,0,0,1-4.168-15.717l1.777-3.565a4.487,4.487,0,0,0-3.133-6.407L11,14.107l3.553-2.369.095-.377a5.761,5.761,0,0,1,10.883-.872l4.944,11.537,15.99-.676,11.084-7.134a8.144,8.144,0,0,1,4.4-1.293,2.346,2.346,0,0,1,1.365,4.255L56.009,22.4" transform="translate(1.845 1.106)" fill="#e6e6e6"/>
        <path id="Path_1453019" data-name="Path 1453019" d="M55.456,33.058l5.358-2.679a3.164,3.164,0,0,0,1.748-2.83,2.782,2.782,0,0,0-2.418-2.759L55.456,22.4l7.309-5.221A2.346,2.346,0,0,0,61.4,12.922a8.145,8.145,0,0,0-4.406,1.294L45.9,21.35l-15.984.676L24.97,10.49a5.756,5.756,0,0,0-10.877.872L14,11.738l2.316.463a4.487,4.487,0,0,1,3.133,6.407l-1.777,3.564a12.285,12.285,0,0,0,4.174,15.717,6.484,6.484,0,0,0,3.6,1.091H52.2a15.279,15.279,0,0,0,3.254-5.921Z" transform="translate(2.398 1.106)" fill="#f2f2f2"/>
        <path id="Path_1453020" data-name="Path 1453020" d="M18,10h2.369v2.369H18Z" transform="translate(3.136 1.659)" fill="#a37765"/>
        <path id="Path_1453021" data-name="Path 1453021" d="M49,25.282,54.358,22.6a3.164,3.164,0,0,0,1.748-2.83,2.783,2.783,0,0,0-2.213-2.724L49,20.544" transform="translate(8.854 2.959)" fill="#e6e6e6"/>
        <path id="Path_1453022" data-name="Path 1453022" d="M24,22.738l.809-.648A18.673,18.673,0,0,1,36.47,18,22.443,22.443,0,0,1,46.5,20.368l-4.736,3.554h5.922l-4.738,3.553h4.738a16.177,16.177,0,0,1-11.438,4.738H33.763a12.132,12.132,0,0,1-8.58-3.554" transform="translate(4.243 3.135)" fill="#e6e6e6"/>
        <path id="Path_1453023" data-name="Path 1453023" d="M4,46H70.33v7.107H4Z" transform="translate(0.553 8.3)" fill="#785349"/>
        <path id="Path_1453024" data-name="Path 1453024" d="M2,36H73.067V47.845H2Z" transform="translate(0.184 6.455)" fill="#a37765"/>
        <path id="Path_1453025" data-name="Path 1453025" d="M4,37.829a7.648,7.648,0,0,0,7.646,7.647H72.7V36H4Z" transform="translate(0.553 6.455)" fill="#bf9377"/>
        <path id="Path_1453026" data-name="Path 1453026" d="M2,52H73.067V63.845H2Z" transform="translate(0.184 9.406)" fill="#a37765"/>
        <path id="Path_1453027" data-name="Path 1453027" d="M4,53.829a7.648,7.648,0,0,0,7.646,7.647H72.7V52H4Z" transform="translate(0.553 9.406)" fill="#bf9377"/>
        <g id="Group_1227646" data-name="Group 1227646" transform="translate(8.107 47.193)">
          <path id="Path_1453028" data-name="Path 1453028" d="M7,40H9.369v2.369H7Z" transform="translate(-7 -40)" fill="#785349"/>
          <path id="Path_1453029" data-name="Path 1453029" d="M7,56H9.369v2.369H7Z" transform="translate(-7 -37.049)" fill="#785349"/>
          <path id="Path_1453030" data-name="Path 1453030" d="M55,40h2.369v2.369H55Z" transform="translate(1.854 -40)" fill="#785349"/>
          <path id="Path_1453031" data-name="Path 1453031" d="M55,56h2.369v2.369H55Z" transform="translate(1.854 -37.049)" fill="#785349"/>
        </g>
        <path id="Path_1453032" data-name="Path 1453032" d="M69.776,52.922V47H11.523A4.523,4.523,0,0,0,7,51.523v1.4Z" transform="translate(1.107 8.484)" fill="#916658"/>
        <path id="Path_1453033" data-name="Path 1453033" d="M73.252,41.271H55.114a16.536,16.536,0,0,0,3.725-6.278l4.9-2.451a4.326,4.326,0,0,0,2.4-3.887,3.954,3.954,0,0,0-1.258-2.873,4.31,4.31,0,0,0,1.258-3.049A3.96,3.96,0,0,0,64.935,19.9l.916-.655a3.53,3.53,0,0,0-2.05-6.4,9.318,9.318,0,0,0-5.045,1.481L48.127,21.157a23.706,23.706,0,0,0-7.415-1.207,19.9,19.9,0,0,0-7.785,1.607L28.573,11.4a6.859,6.859,0,0,0,.854-3.292A4.746,4.746,0,0,0,25.452,3.43l-.094-.18a4.058,4.058,0,0,0-7.261,0l-.171.34-1.47.489a3.543,3.543,0,0,0-.482,6.525,6.948,6.948,0,0,0-.615,1.513l-3.173,2.115a1.184,1.184,0,0,0,.42,2.141l2.316.464a3.3,3.3,0,0,1,2.306,4.715L15.45,25.118a13.464,13.464,0,0,0,3.176,16.152H2.184A1.184,1.184,0,0,0,1,42.455V54.3a1.184,1.184,0,0,0,1.184,1.184H3.369v4.738H2.184A1.184,1.184,0,0,0,1,61.406V73.251a1.184,1.184,0,0,0,1.184,1.184H73.252a1.184,1.184,0,0,0,1.184-1.184V61.406a1.184,1.184,0,0,0-1.184-1.184H72.067V55.484h1.184A1.184,1.184,0,0,0,74.436,54.3V42.455A1.184,1.184,0,0,0,73.252,41.271ZM17.206,6.321l1.935-.644a1.184,1.184,0,0,0,.686-.592l.39-.779a1.689,1.689,0,0,1,3.023,0l.39.779a1.184,1.184,0,0,0,1.06.653,2.369,2.369,0,0,1,2.369,2.369,4.549,4.549,0,0,1-.09.853,6.879,6.879,0,0,0-9.444-.312l-.237-.058A1.184,1.184,0,0,1,17.2,6.321Zm4.135,34.058a11.1,11.1,0,0,1-3.771-14.2l1.777-3.564a5.671,5.671,0,0,0-3.5-7.986l1.2-.8a1.184,1.184,0,0,0,.492-.7l.095-.378a4.573,4.573,0,0,1,8.639-.692L30.8,22.615A19.848,19.848,0,0,0,28.31,24.3l-.81.648L28.98,26.8l.809-.648a17.541,17.541,0,0,1,10.923-3.831,21.375,21.375,0,0,1,7.708,1.449L45.3,26.11a1.184,1.184,0,0,0,.711,2.132h2.369l-1.9,1.421a1.184,1.184,0,0,0,.711,2.132h1.4a14.892,14.892,0,0,1-8.1,2.369H38.006a10.876,10.876,0,0,1-7.742-3.206L28.59,32.632a13.228,13.228,0,0,0,9.416,3.9h2.487a17.243,17.243,0,0,0,12.276-5.085,1.184,1.184,0,0,0-.837-2.022H50.747L52.642,28a1.184,1.184,0,0,0-.711-2.132H49.563l1.9-1.421a1.184,1.184,0,0,0-.181-2.014c-.147-.073-.3-.136-.448-.207l9.207-5.922a6.952,6.952,0,0,1,3.764-1.1,1.162,1.162,0,0,1,.674,2.107l-7.308,5.221,1.376,1.926,4.382-3.131a1.593,1.593,0,0,1,.852,1.4,1.969,1.969,0,0,1-1.094,1.777l-5.357,2.678,1.059,2.12,4.282-2.141a1.582,1.582,0,0,1,1.111,1.489,1.969,1.969,0,0,1-1.094,1.777L57.324,33.11a1.184,1.184,0,0,0-.609.734,14.173,14.173,0,0,1-5.139,7.427h-28.9ZM72.067,72.067H3.369V62.591h68.7ZM69.7,60.222H5.738V55.484H69.7Zm2.369-7.107H3.369V43.64h68.7Z"/>
        <path id="Path_1453034" data-name="Path 1453034" d="M7,40H9.369v2.369H7Z" transform="translate(1.107 7.193)"/>
        <path id="Path_1453035" data-name="Path 1453035" d="M7,56H9.369v2.369H7Z" transform="translate(1.107 10.144)"/>
        <path id="Path_1453036" data-name="Path 1453036" d="M55,40h2.369v2.369H55Z" transform="translate(9.961 7.193)"/>
        <path id="Path_1453037" data-name="Path 1453037" d="M55,56h2.369v2.369H55Z" transform="translate(9.961 10.144)"/>
        <path id="Path_1453038" data-name="Path 1453038" d="M18,10h2.369v2.369H18Z" transform="translate(3.136 1.659)"/>
      </g>
    </g>
  </g>
</svg>
