<svg xmlns="http://www.w3.org/2000/svg" width="242" height="74" viewBox="0 0 242 74">
  <g id="Group_1227969" data-name="Group 1227969" transform="translate(6625 -1394)">
    <g id="Group_1227968" data-name="Group 1227968">
      <g id="Group_1227967" data-name="Group 1227967">
        <g id="Group_1227966" data-name="Group 1227966">
          <g id="Group_1227965" data-name="Group 1227965">
            <g id="Group_1227964" data-name="Group 1227964">
              <rect id="Rectangle_414884" data-name="Rectangle 414884" width="242" height="74" transform="translate(-6625 1394)" fill="#fff9eb"/>
              <g id="Group_1227929" data-name="Group 1227929" transform="translate(41.5 79.278)">
                <path id="Path_1485034" data-name="Path 1485034" d="M5.7,10.768H2.127L1.324,13H.164L3.422,4.469h.984L7.67,13H6.516Zm-3.234-.92h2.9L3.914,5.857ZM9.826,13H8.742V4H9.826Zm2.912,0H11.654V6.66h1.084ZM11.566,4.979a.647.647,0,0,1,.161-.445.6.6,0,0,1,.478-.182.614.614,0,0,1,.48.182.64.64,0,0,1,.164.445.619.619,0,0,1-.164.439.626.626,0,0,1-.48.176.616.616,0,0,1-.478-.176A.626.626,0,0,1,11.566,4.979ZM15.492,6.66l.029.7a2.341,2.341,0,0,1,1.881-.82,1.813,1.813,0,0,1,1.811,1.02,2.4,2.4,0,0,1,.823-.738,2.431,2.431,0,0,1,1.2-.281q2.086,0,2.121,2.209V13H22.271V8.816A1.456,1.456,0,0,0,21.961,7.8a1.368,1.368,0,0,0-1.043-.337,1.437,1.437,0,0,0-1,.36,1.462,1.462,0,0,0-.463.97V13h-1.09V8.846A1.209,1.209,0,0,0,17.01,7.463a1.45,1.45,0,0,0-1.459.908V13H14.467V6.66Zm12.129,6.457a2.77,2.77,0,0,1-2.1-.847,3.142,3.142,0,0,1-.809-2.265v-.2a3.8,3.8,0,0,1,.36-1.685,2.811,2.811,0,0,1,1.008-1.16,2.534,2.534,0,0,1,1.4-.419,2.374,2.374,0,0,1,1.922.814,3.526,3.526,0,0,1,.686,2.332v.451H25.8a2.254,2.254,0,0,0,.548,1.515,1.722,1.722,0,0,0,1.333.577A1.888,1.888,0,0,0,28.652,12a2.444,2.444,0,0,0,.7-.621l.662.516A2.662,2.662,0,0,1,27.621,13.117Zm-.135-5.684a1.446,1.446,0,0,0-1.1.478,2.321,2.321,0,0,0-.551,1.339H29.01V9.168a2.065,2.065,0,0,0-.445-1.28A1.361,1.361,0,0,0,27.486,7.434Zm4.887-.773.035.8a2.31,2.31,0,0,1,1.9-.914q2.01,0,2.027,2.268V13H35.25V8.8a1.459,1.459,0,0,0-.313-1.014,1.256,1.256,0,0,0-.958-.328,1.564,1.564,0,0,0-.926.281,1.91,1.91,0,0,0-.621.738V13H31.348V6.66Zm7.066-1.535V6.66h1.184V7.5H39.439v3.937a.88.88,0,0,0,.158.572.666.666,0,0,0,.539.191,2.624,2.624,0,0,0,.516-.07V13a3.161,3.161,0,0,1-.832.116,1.35,1.35,0,0,1-1.1-.439,1.888,1.888,0,0,1-.369-1.248V7.5H37.2V6.66h1.154V5.125Zm2.045,4.646A3.745,3.745,0,0,1,41.851,8.1a2.732,2.732,0,0,1,1.02-1.148,2.775,2.775,0,0,1,1.491-.4,2.674,2.674,0,0,1,2.095.9,3.449,3.449,0,0,1,.8,2.385V9.9a3.777,3.777,0,0,1-.354,1.661,2.692,2.692,0,0,1-1.014,1.146,2.807,2.807,0,0,1-1.515.41,2.667,2.667,0,0,1-2.089-.9,3.432,3.432,0,0,1-.8-2.373Zm1.09.129a2.712,2.712,0,0,0,.489,1.693,1.658,1.658,0,0,0,2.622-.009,2.966,2.966,0,0,0,.486-1.813,2.708,2.708,0,0,0-.5-1.69,1.574,1.574,0,0,0-1.315-.647,1.557,1.557,0,0,0-1.295.639A2.944,2.944,0,0,0,42.574,9.9Zm11.555,2.332a1.561,1.561,0,0,0,1.014-.352,1.237,1.237,0,0,0,.48-.879h1.025a1.966,1.966,0,0,1-.375,1.037,2.47,2.47,0,0,1-.923.785,2.663,2.663,0,0,1-1.222.293,2.612,2.612,0,0,1-2.06-.864A3.442,3.442,0,0,1,51.3,9.889V9.707a3.817,3.817,0,0,1,.34-1.646,2.588,2.588,0,0,1,.976-1.119,2.771,2.771,0,0,1,1.5-.4,2.543,2.543,0,0,1,1.772.639,2.283,2.283,0,0,1,.753,1.658H55.623a1.494,1.494,0,0,0-.466-1.011,1.449,1.449,0,0,0-1.034-.4,1.517,1.517,0,0,0-1.28.595,2.793,2.793,0,0,0-.454,1.72v.205a2.737,2.737,0,0,0,.451,1.688A1.524,1.524,0,0,0,54.129,12.232ZM57.58,9.771A3.745,3.745,0,0,1,57.946,8.1a2.732,2.732,0,0,1,1.02-1.148,2.775,2.775,0,0,1,1.491-.4,2.674,2.674,0,0,1,2.095.9,3.449,3.449,0,0,1,.8,2.385V9.9A3.777,3.777,0,0,1,63,11.562a2.692,2.692,0,0,1-1.014,1.146,2.807,2.807,0,0,1-1.515.41,2.667,2.667,0,0,1-2.089-.9,3.432,3.432,0,0,1-.8-2.373Zm1.09.129a2.712,2.712,0,0,0,.489,1.693,1.658,1.658,0,0,0,2.622-.009,2.966,2.966,0,0,0,.486-1.813,2.708,2.708,0,0,0-.5-1.69,1.574,1.574,0,0,0-1.315-.647,1.557,1.557,0,0,0-1.295.639A2.944,2.944,0,0,0,58.67,9.9Zm7.066-3.24.035.8a2.31,2.31,0,0,1,1.9-.914q2.01,0,2.027,2.268V13H68.613V8.8A1.459,1.459,0,0,0,68.3,7.791a1.256,1.256,0,0,0-.958-.328,1.564,1.564,0,0,0-.926.281,1.91,1.91,0,0,0-.621.738V13H64.711V6.66Zm9.287,4.658a.8.8,0,0,0-.331-.683,3.187,3.187,0,0,0-1.154-.419,5.457,5.457,0,0,1-1.307-.422,1.859,1.859,0,0,1-.715-.586,1.4,1.4,0,0,1-.231-.809,1.645,1.645,0,0,1,.659-1.318,2.574,2.574,0,0,1,1.685-.539,2.649,2.649,0,0,1,1.749.557,1.768,1.768,0,0,1,.671,1.424h-1.09a.979.979,0,0,0-.378-.768,1.416,1.416,0,0,0-.952-.322,1.482,1.482,0,0,0-.926.258.812.812,0,0,0-.334.674.658.658,0,0,0,.311.592,3.821,3.821,0,0,0,1.122.381,5.847,5.847,0,0,1,1.315.434,1.919,1.919,0,0,1,.747.606,1.491,1.491,0,0,1,.243.864,1.623,1.623,0,0,1-.68,1.362,2.851,2.851,0,0,1-1.764.513,3.193,3.193,0,0,1-1.348-.27,2.192,2.192,0,0,1-.917-.753,1.815,1.815,0,0,1-.331-1.046h1.084a1.122,1.122,0,0,0,.437.864,1.693,1.693,0,0,0,1.075.319,1.748,1.748,0,0,0,.987-.249A.765.765,0,0,0,75.023,11.318Zm6.41,1.055a2.3,2.3,0,0,1-1.857.744,1.971,1.971,0,0,1-1.544-.589,2.549,2.549,0,0,1-.536-1.743V6.66H78.58v4.1q0,1.441,1.172,1.441a1.623,1.623,0,0,0,1.652-.926V6.66h1.084V13H81.457ZM85.154,6.66l.029.7a2.341,2.341,0,0,1,1.881-.82,1.813,1.813,0,0,1,1.811,1.02,2.4,2.4,0,0,1,.823-.738,2.431,2.431,0,0,1,1.2-.281q2.086,0,2.121,2.209V13H91.934V8.816A1.456,1.456,0,0,0,91.623,7.8a1.368,1.368,0,0,0-1.043-.337,1.437,1.437,0,0,0-1,.36,1.462,1.462,0,0,0-.463.97V13h-1.09V8.846a1.209,1.209,0,0,0-1.354-1.383,1.45,1.45,0,0,0-1.459.908V13H84.129V6.66ZM95.83,13H94.746V6.66H95.83ZM94.658,4.979a.647.647,0,0,1,.161-.445.6.6,0,0,1,.478-.182.614.614,0,0,1,.48.182.64.64,0,0,1,.164.445.619.619,0,0,1-.164.439.626.626,0,0,1-.48.176.616.616,0,0,1-.478-.176A.626.626,0,0,1,94.658,4.979Zm2.643,4.8a3.714,3.714,0,0,1,.691-2.347,2.352,2.352,0,0,1,3.574-.126V4h1.084v9h-1l-.053-.68a2.208,2.208,0,0,1-1.811.8,2.165,2.165,0,0,1-1.8-.9A3.756,3.756,0,0,1,97.3,9.859Zm1.084.123a2.812,2.812,0,0,0,.445,1.688,1.44,1.44,0,0,0,1.23.609,1.581,1.581,0,0,0,1.506-.926V8.359a1.593,1.593,0,0,0-1.494-.9,1.446,1.446,0,0,0-1.242.615A3.1,3.1,0,0,0,98.385,9.9Zm5.66-.129a3.745,3.745,0,0,1,.366-1.676,2.732,2.732,0,0,1,1.02-1.148,2.775,2.775,0,0,1,1.491-.4,2.674,2.674,0,0,1,2.095.9,3.449,3.449,0,0,1,.8,2.385V9.9a3.777,3.777,0,0,1-.354,1.661,2.692,2.692,0,0,1-1.014,1.146,2.807,2.807,0,0,1-1.515.41,2.667,2.667,0,0,1-2.089-.9,3.432,3.432,0,0,1-.8-2.373Zm1.09.129a2.712,2.712,0,0,0,.489,1.693,1.658,1.658,0,0,0,2.622-.009,2.966,2.966,0,0,0,.486-1.813,2.708,2.708,0,0,0-.5-1.69,1.574,1.574,0,0,0-1.315-.647,1.557,1.557,0,0,0-1.295.639A2.944,2.944,0,0,0,105.135,9.9Zm8.971-.363a9.059,9.059,0,0,1,.354-2.543,7.387,7.387,0,0,1,1.058-2.215,4.5,4.5,0,0,1,1.459-1.406l.223.715a4.667,4.667,0,0,0-1.4,2,8.687,8.687,0,0,0-.6,3.018l-.006.5a8.733,8.733,0,0,0,.826,3.926,4.689,4.689,0,0,0,1.184,1.559l-.223.662a4.644,4.644,0,0,1-1.488-1.453A8.144,8.144,0,0,1,114.105,9.537Zm5.912.527-.68.709V13h-1.084V4h1.084V9.443l.58-.7,1.975-2.086h1.318l-2.467,2.648L123.5,13h-1.271Zm4.055-.287a3.726,3.726,0,0,1,.686-2.358,2.363,2.363,0,0,1,3.627-.056l.053-.7h.99v6.188a2.579,2.579,0,0,1-.729,1.939,2.692,2.692,0,0,1-1.96.709A3.261,3.261,0,0,1,125.4,15.2a2.31,2.31,0,0,1-1-.8l.563-.65a2.12,2.12,0,0,0,1.705.861,1.661,1.661,0,0,0,1.233-.445,1.7,1.7,0,0,0,.442-1.254v-.545a2.228,2.228,0,0,1-1.775.75,2.166,2.166,0,0,1-1.8-.9A3.918,3.918,0,0,1,124.072,9.777Zm1.09.123a2.843,2.843,0,0,0,.439,1.685,1.428,1.428,0,0,0,1.23.612,1.588,1.588,0,0,0,1.506-.932V8.371a1.606,1.606,0,0,0-1.494-.908,1.441,1.441,0,0,0-1.236.615A3.1,3.1,0,0,0,125.162,9.9Zm8.4-.3a9.063,9.063,0,0,1-.343,2.5,7.407,7.407,0,0,1-1.049,2.212,4.6,4.6,0,0,1-1.479,1.441l-.229-.662a4.711,4.711,0,0,0,1.45-2.147,9.29,9.29,0,0,0,.56-3.231V9.525a9.646,9.646,0,0,0-.258-2.288,7.722,7.722,0,0,0-.718-1.9,4.378,4.378,0,0,0-1.034-1.307l.229-.662a4.577,4.577,0,0,1,1.474,1.43,7.423,7.423,0,0,1,1.049,2.209A9.273,9.273,0,0,1,133.564,9.6Z" transform="translate(-6588 1329.722)" fill="#12263f"/>
                <path id="Path_1485036" data-name="Path 1485036" d="M9.688,13.391a4.185,4.185,0,0,1-1.332,2.785,4.365,4.365,0,0,1-2.98.98,4.008,4.008,0,0,1-3.23-1.445A5.815,5.815,0,0,1,.93,11.844V10.75A6.481,6.481,0,0,1,1.5,7.961,4.231,4.231,0,0,1,3.1,6.113a4.47,4.47,0,0,1,2.406-.645A4.11,4.11,0,0,1,8.414,6.48a4.235,4.235,0,0,1,1.273,2.8H8.18a3.268,3.268,0,0,0-.848-1.975A2.565,2.565,0,0,0,5.508,6.7,2.684,2.684,0,0,0,3.254,7.759a4.882,4.882,0,0,0-.816,3.026v1.1a5.018,5.018,0,0,0,.773,2.948A2.5,2.5,0,0,0,5.375,15.93a2.887,2.887,0,0,0,1.918-.566,3.143,3.143,0,0,0,.887-1.973Zm8.328.633H13.25L12.18,17H10.633L14.977,5.625h1.313L20.641,17H19.1ZM13.7,12.8H17.57l-1.937-5.32Zm18.813-2.156H26V9.383h6.516Zm0,3.242H26v-1.25h6.516Z" transform="translate(-6646.5 1340.919)" fill="#12263f"/>
                <path id="Path_1485035" data-name="Path 1485035" d="M2.115,9.66V13H.99V4.469H4.137a3.161,3.161,0,0,1,2.194.715,2.423,2.423,0,0,1,.794,1.893,2.391,2.391,0,0,1-.776,1.913,3.3,3.3,0,0,1-2.224.671Zm0-.92H4.137A2.021,2.021,0,0,0,5.52,8.315,1.556,1.556,0,0,0,6,7.085a1.608,1.608,0,0,0-.48-1.221A1.894,1.894,0,0,0,4.2,5.389H2.115Zm8.906,4.377a2.77,2.77,0,0,1-2.1-.847,3.142,3.142,0,0,1-.809-2.265v-.2a3.8,3.8,0,0,1,.36-1.685,2.811,2.811,0,0,1,1.008-1.16,2.534,2.534,0,0,1,1.4-.419,2.374,2.374,0,0,1,1.922.814,3.526,3.526,0,0,1,.686,2.332v.451H9.2a2.254,2.254,0,0,0,.548,1.515,1.722,1.722,0,0,0,1.333.577A1.888,1.888,0,0,0,12.053,12a2.444,2.444,0,0,0,.7-.621l.662.516A2.662,2.662,0,0,1,11.021,13.117Zm-.135-5.684a1.446,1.446,0,0,0-1.1.478A2.321,2.321,0,0,0,9.234,9.25H12.41V9.168a2.065,2.065,0,0,0-.445-1.28A1.361,1.361,0,0,0,10.887,7.434Zm7.553,3.885a.8.8,0,0,0-.331-.683,3.187,3.187,0,0,0-1.154-.419,5.457,5.457,0,0,1-1.307-.422,1.859,1.859,0,0,1-.715-.586A1.4,1.4,0,0,1,14.7,8.4a1.645,1.645,0,0,1,.659-1.318,2.574,2.574,0,0,1,1.685-.539,2.649,2.649,0,0,1,1.749.557,1.768,1.768,0,0,1,.671,1.424h-1.09A.979.979,0,0,0,18,7.756a1.416,1.416,0,0,0-.952-.322,1.482,1.482,0,0,0-.926.258.812.812,0,0,0-.334.674.658.658,0,0,0,.311.592,3.821,3.821,0,0,0,1.122.381,5.847,5.847,0,0,1,1.315.434,1.919,1.919,0,0,1,.747.606,1.491,1.491,0,0,1,.243.864,1.623,1.623,0,0,1-.68,1.362,2.851,2.851,0,0,1-1.764.513,3.193,3.193,0,0,1-1.348-.27,2.192,2.192,0,0,1-.917-.753,1.815,1.815,0,0,1-.331-1.046h1.084a1.122,1.122,0,0,0,.437.864,1.693,1.693,0,0,0,1.075.319,1.748,1.748,0,0,0,.987-.249A.765.765,0,0,0,18.439,11.318Zm2.209-1.547A3.745,3.745,0,0,1,21.015,8.1a2.732,2.732,0,0,1,1.02-1.148,2.775,2.775,0,0,1,1.491-.4,2.674,2.674,0,0,1,2.095.9,3.449,3.449,0,0,1,.8,2.385V9.9a3.777,3.777,0,0,1-.354,1.661,2.692,2.692,0,0,1-1.014,1.146,2.807,2.807,0,0,1-1.515.41,2.667,2.667,0,0,1-2.089-.9,3.432,3.432,0,0,1-.8-2.373Zm1.09.129a2.712,2.712,0,0,0,.489,1.693,1.658,1.658,0,0,0,2.622-.009,2.966,2.966,0,0,0,.486-1.813,2.708,2.708,0,0,0-.5-1.69,1.574,1.574,0,0,0-1.315-.647,1.557,1.557,0,0,0-1.295.639A2.944,2.944,0,0,0,21.738,9.9Zm8.754-.123a3.726,3.726,0,0,1,.686-2.358A2.363,2.363,0,0,1,34.8,7.363l.053-.7h.99v6.188a2.579,2.579,0,0,1-.729,1.939,2.692,2.692,0,0,1-1.96.709,3.261,3.261,0,0,1-1.342-.293,2.31,2.31,0,0,1-1-.8l.563-.65a2.12,2.12,0,0,0,1.705.861,1.661,1.661,0,0,0,1.233-.445,1.7,1.7,0,0,0,.442-1.254v-.545a2.228,2.228,0,0,1-1.775.75,2.166,2.166,0,0,1-1.8-.9A3.918,3.918,0,0,1,30.492,9.777Zm1.09.123a2.843,2.843,0,0,0,.439,1.685,1.428,1.428,0,0,0,1.23.612,1.588,1.588,0,0,0,1.506-.932V8.371a1.606,1.606,0,0,0-1.494-.908,1.441,1.441,0,0,0-1.236.615A3.1,3.1,0,0,0,31.582,9.9ZM41.4,13a2.277,2.277,0,0,1-.152-.668,2.419,2.419,0,0,1-1.8.785,2.238,2.238,0,0,1-1.538-.53,1.716,1.716,0,0,1-.6-1.345A1.792,1.792,0,0,1,38.054,9.7a3.55,3.55,0,0,1,2.118-.548h1.055v-.5a1.217,1.217,0,0,0-.34-.905,1.366,1.366,0,0,0-1-.337,1.581,1.581,0,0,0-.973.293.863.863,0,0,0-.393.709H37.43a1.5,1.5,0,0,1,.337-.917,2.3,2.3,0,0,1,.914-.7,3.075,3.075,0,0,1,1.269-.258,2.506,2.506,0,0,1,1.717.548A1.976,1.976,0,0,1,42.311,8.6v2.918a3.567,3.567,0,0,0,.223,1.389V13Zm-1.8-.826a1.905,1.905,0,0,0,.967-.264,1.6,1.6,0,0,0,.662-.686v-1.3h-.85q-1.992,0-1.992,1.166a.987.987,0,0,0,.34.8A1.306,1.306,0,0,0,39.6,12.174ZM45.035,6.66l.035.8a2.31,2.31,0,0,1,1.9-.914q2.01,0,2.027,2.268V13H47.912V8.8A1.459,1.459,0,0,0,47.6,7.791a1.256,1.256,0,0,0-.958-.328,1.564,1.564,0,0,0-.926.281,1.91,1.91,0,0,0-.621.738V13H44.01V6.66ZM54.545,13a2.277,2.277,0,0,1-.152-.668,2.419,2.419,0,0,1-1.8.785,2.238,2.238,0,0,1-1.538-.53,1.716,1.716,0,0,1-.6-1.345A1.792,1.792,0,0,1,51.2,9.7a3.55,3.55,0,0,1,2.118-.548h1.055v-.5a1.217,1.217,0,0,0-.34-.905,1.366,1.366,0,0,0-1-.337,1.581,1.581,0,0,0-.973.293.863.863,0,0,0-.393.709h-1.09a1.5,1.5,0,0,1,.337-.917,2.3,2.3,0,0,1,.914-.7A3.075,3.075,0,0,1,53.1,6.543a2.506,2.506,0,0,1,1.717.548A1.976,1.976,0,0,1,55.459,8.6v2.918a3.567,3.567,0,0,0,.223,1.389V13Zm-1.8-.826a1.905,1.905,0,0,0,.967-.264,1.6,1.6,0,0,0,.662-.686v-1.3h-.85q-1.992,0-1.992,1.166a.987.987,0,0,0,.34.8A1.306,1.306,0,0,0,52.746,12.174Zm4.148-2.4a3.714,3.714,0,0,1,.691-2.347A2.352,2.352,0,0,1,61.16,7.3V4h1.084v9h-1l-.053-.68a2.208,2.208,0,0,1-1.811.8,2.165,2.165,0,0,1-1.8-.9,3.756,3.756,0,0,1-.694-2.355Zm1.084.123a2.812,2.812,0,0,0,.445,1.688,1.44,1.44,0,0,0,1.23.609,1.581,1.581,0,0,0,1.506-.926V8.359a1.593,1.593,0,0,0-1.494-.9,1.446,1.446,0,0,0-1.242.615A3.1,3.1,0,0,0,57.979,9.9Zm5.66-.129A3.745,3.745,0,0,1,64,8.1a2.732,2.732,0,0,1,1.02-1.148,2.775,2.775,0,0,1,1.491-.4,2.674,2.674,0,0,1,2.095.9,3.449,3.449,0,0,1,.8,2.385V9.9a3.777,3.777,0,0,1-.354,1.661,2.692,2.692,0,0,1-1.014,1.146,2.807,2.807,0,0,1-1.515.41,2.667,2.667,0,0,1-2.089-.9,3.432,3.432,0,0,1-.8-2.373Zm1.09.129a2.712,2.712,0,0,0,.489,1.693,1.658,1.658,0,0,0,2.622-.009,2.966,2.966,0,0,0,.486-1.813,2.708,2.708,0,0,0-.5-1.69,1.574,1.574,0,0,0-1.315-.647,1.557,1.557,0,0,0-1.295.639A2.944,2.944,0,0,0,64.729,9.9ZM73.7,9.537a9.059,9.059,0,0,1,.354-2.543,7.387,7.387,0,0,1,1.058-2.215A4.5,4.5,0,0,1,76.57,3.373l.223.715a4.667,4.667,0,0,0-1.4,2,8.687,8.687,0,0,0-.6,3.018l-.006.5a8.733,8.733,0,0,0,.826,3.926,4.689,4.689,0,0,0,1.184,1.559l-.223.662A4.644,4.644,0,0,1,75.082,14.3,8.144,8.144,0,0,1,73.7,9.537Zm5.912.527-.68.709V13H77.848V4h1.084V9.443l.58-.7L81.486,6.66H82.8L80.338,9.309,83.092,13H81.82Zm4.055-.287a3.726,3.726,0,0,1,.686-2.358,2.363,2.363,0,0,1,3.627-.056l.053-.7h.99v6.188a2.579,2.579,0,0,1-.729,1.939,2.692,2.692,0,0,1-1.96.709A3.261,3.261,0,0,1,84.99,15.2a2.31,2.31,0,0,1-1-.8l.563-.65a2.12,2.12,0,0,0,1.705.861,1.661,1.661,0,0,0,1.233-.445,1.7,1.7,0,0,0,.442-1.254v-.545a2.228,2.228,0,0,1-1.775.75,2.166,2.166,0,0,1-1.8-.9A3.918,3.918,0,0,1,83.666,9.777Zm1.09.123a2.843,2.843,0,0,0,.439,1.685,1.428,1.428,0,0,0,1.23.612,1.588,1.588,0,0,0,1.506-.932V8.371a1.606,1.606,0,0,0-1.494-.908,1.441,1.441,0,0,0-1.236.615A3.1,3.1,0,0,0,84.756,9.9Zm8.4-.3a9.063,9.063,0,0,1-.343,2.5,7.407,7.407,0,0,1-1.049,2.212,4.6,4.6,0,0,1-1.479,1.441l-.229-.662a4.711,4.711,0,0,0,1.45-2.147,9.29,9.29,0,0,0,.56-3.231V9.525a9.646,9.646,0,0,0-.258-2.288,7.722,7.722,0,0,0-.718-1.9,4.378,4.378,0,0,0-1.034-1.307l.229-.662A4.577,4.577,0,0,1,91.761,4.8,7.423,7.423,0,0,1,92.81,7.012,9.273,9.273,0,0,1,93.158,9.6Z" transform="translate(-6568 1357.115)" fill="#12263f"/>
                <line id="Line_758" data-name="Line 758" x2="155" transform="translate(-6598.5 1351.5)" fill="none" stroke="#707070" stroke-width="1"/>
              </g>
            </g>
          </g>
        </g>
      </g>
    </g>
  </g>
</svg>
