<svg xmlns="http://www.w3.org/2000/svg" xmlns:xlink="http://www.w3.org/1999/xlink" width="70.121" height="70.121" viewBox="0 0 70.121 70.121">
  <defs>
    <filter id="Rectangle_414906" x="0" y="0" width="70.121" height="70.121" filterUnits="userSpaceOnUse">
      <feOffset dy="3" input="SourceAlpha"/>
      <feGaussianBlur stdDeviation="3" result="blur"/>
      <feFlood flood-opacity="0.161"/>
      <feComposite operator="in" in2="blur"/>
      <feComposite in="SourceGraphic"/>
    </filter>
    <clipPath id="clip-path">
      <rect id="Rectangle_414649" data-name="Rectangle 414649" width="52.121" height="52.121" transform="translate(805.781 2555)" fill="#fff" stroke="#707070" stroke-width="1"/>
    </clipPath>
  </defs>
  <g id="Group_1227954" data-name="Group 1227954" transform="translate(-624.051 -7174)">
    <g transform="matrix(1, 0, 0, 1, 624.05, 7174)" filter="url(#Rectangle_414906)">
      <g id="Rectangle_414906-2" data-name="Rectangle 414906" transform="translate(9 6)" fill="#ffc94a" stroke="#fff" stroke-width="2">
        <path d="M5,0H20.121a32,32,0,0,1,32,32V47.121a5,5,0,0,1-5,5H32a32,32,0,0,1-32-32V5A5,5,0,0,1,5,0Z" stroke="none"/>
        <path d="M5,1H20.121a31,31,0,0,1,31,31V47.121a4,4,0,0,1-4,4H32a31,31,0,0,1-31-31V5A4,4,0,0,1,5,1Z" fill="none"/>
      </g>
    </g>
    <g id="Mask_Group_1099342" data-name="Mask Group 1099342" transform="translate(-172.73 4625)" clip-path="url(#clip-path)">
      <g id="Group_1227327" data-name="Group 1227327" transform="translate(806.459 2556.127)">
        <path id="Path_1484937" data-name="Path 1484937" d="M5.7,34.4,7.32,42.417H6.543a2.448,2.448,0,0,0-2.461,2.438v2.373H0l.843-7.89a4.53,4.53,0,0,1,2.915-4.233Z" transform="translate(4.271 -2.255)" fill="#313a52" stroke="#000" stroke-linecap="round" stroke-linejoin="round" stroke-width="1"/>
        <path id="Path_1484938" data-name="Path 1484938" d="M27.365,31.9l-.777,9.622H16.027l-.777-9.557.13-.065,5.96,4.362Z" transform="translate(-1.197 -1.359)" fill="#313a52" stroke="#000" stroke-linecap="round" stroke-linejoin="round" stroke-width="1"/>
        <path id="Path_1484939" data-name="Path 1484939" d="M44.416,38.875l.777,8.211H41.112V44.712a2.449,2.449,0,0,0-2.461-2.438h-.777L39.492,34l1.749.577a4.55,4.55,0,0,1,3.175,4.3" transform="translate(-9.308 -2.112)" fill="#313a52" stroke="#000" stroke-linecap="round" stroke-linejoin="round" stroke-width="1"/>
        <path id="Path_1484940" data-name="Path 1484940" d="M29.879,49.337V51.71H6.362V49.337A2.449,2.449,0,0,1,8.824,46.9H27.417a2.491,2.491,0,0,1,2.462,2.438" transform="translate(1.99 -6.737)" fill="#e8a664" stroke="#000" stroke-linecap="round" stroke-linejoin="round" stroke-width="1"/>
        <path id="Path_1484941" data-name="Path 1484941" d="M37.783,33.247l-1.619,8.274H32.924L33.7,31.9Z" transform="translate(-7.534 -1.359)" fill="#febe76" stroke="#000" stroke-linecap="round" stroke-linejoin="round" stroke-width="1"/>
        <path id="Path_1484942" data-name="Path 1484942" d="M12.969,32l.777,9.557H10.507L8.888,33.539Z" transform="translate(1.084 -1.395)" fill="#febe76" stroke="#000" stroke-linecap="round" stroke-linejoin="round" stroke-width="1"/>
        <path id="Path_1484943" data-name="Path 1484943" d="M28.413,7.249V9.686H13.836V7.249a7.288,7.288,0,0,1,14.577,0" transform="translate(-0.69 10.078)" fill="#3c3b3d" stroke="#000" stroke-linecap="round" stroke-linejoin="round" stroke-width="1"/>
        <path id="Path_1484944" data-name="Path 1484944" d="M28.413,15.1v.192c0,3.785-2.656,8.981-7.45,8.981-4.729,0-7.127-5.2-7.127-8.981V15.1Z" transform="translate(-0.69 4.664)" fill="#ffd8a8" stroke="#000" stroke-linecap="round" stroke-linejoin="round" stroke-width="1"/>
        <path id="Path_1484945" data-name="Path 1484945" d="M29.37,13.8H8.315a.834.834,0,1,0,0,1.668H29.37a.853.853,0,0,0,.842-.834.9.9,0,0,0-.842-.834" transform="translate(1.591 5.13)" fill="#323133" stroke="#000" stroke-linecap="round" stroke-linejoin="round" stroke-width="1"/>
        <path id="Path_1484946" data-name="Path 1484946" d="M29.255,20.367h-.842a.834.834,0,1,1,0-1.668h.842a.853.853,0,0,1,.842.835.812.812,0,0,1-.842.834" transform="translate(-5.614 3.374)" fill="#eabd8c"/>
        <path id="Path_1484947" data-name="Path 1484947" d="M20.469,20.367h-.842a.834.834,0,1,1,0-1.668h.842a.834.834,0,1,1,0,1.668" transform="translate(-2.464 3.374)" fill="#eabd8c"/>
        <path id="Path_1484948" data-name="Path 1484948" d="M26.047,23.227a.889.889,0,0,0-1.166-.128h-.065a1.655,1.655,0,0,1-2.138,0,.838.838,0,0,0-1.166.128.819.819,0,0,0,.13,1.155,3.4,3.4,0,0,0,2.527.77,3.589,3.589,0,0,0,1.749-.77.82.82,0,0,0,.13-1.155" transform="translate(-3.377 1.86)" fill="#eabd8c"/>
        <path id="Path_1484949" data-name="Path 1484949" d="M67.792,41.926a2.428,2.428,0,0,1-4.477,1.882l-3.05-7.073a6.639,6.639,0,0,0,2.4-.649,9.4,9.4,0,0,0,2.076-1.3Z" transform="translate(-17.336 -2.395)" fill="#3c3b3d" stroke="#000" stroke-linecap="round" stroke-linejoin="round" stroke-width="1"/>
        <path id="Path_1484950" data-name="Path 1484950" d="M54.175,12.63A8.14,8.14,0,0,1,59.82,26.907a7.513,7.513,0,0,1-2.076,1.3,10.09,10.09,0,0,1-2.4.649,8.564,8.564,0,0,1-5.97-1.752,7.606,7.606,0,0,1-2.336-3.115,11.856,11.856,0,0,1-.52-1.622,8.138,8.138,0,0,1,1.362-6.359,8.276,8.276,0,0,1,3.375-2.726,9.488,9.488,0,0,1,2.92-.649" transform="translate(-12.349 5.552)" fill="#d8f2f1" stroke="#000" stroke-linecap="round" stroke-linejoin="round" stroke-width="1"/>
        <path id="Path_1484951" data-name="Path 1484951" d="M56.324,27.555a5.283,5.283,0,0,1-4.8-3.18.8.8,0,0,1,1.493-.584,3.458,3.458,0,0,0,1.946,1.881,3.6,3.6,0,0,0,2.726-.065,3.562,3.562,0,1,0-2.79-6.554.8.8,0,0,1-.584-1.493A5.189,5.189,0,1,1,58.4,27.1a4.806,4.806,0,0,1-2.076.454" transform="translate(-14.174 3.93)" fill="#fff"/>
      </g>
    </g>
  </g>
</svg>
