<svg xmlns="http://www.w3.org/2000/svg" xmlns:xlink="http://www.w3.org/1999/xlink" width="118" height="118" viewBox="0 0 118 118">
  <defs>
    <filter id="Rectangle_411831" x="0" y="0" width="118" height="118" filterUnits="userSpaceOnUse">
      <feOffset dy="3" input="SourceAlpha"/>
      <feGaussianBlur stdDeviation="3" result="blur"/>
      <feFlood flood-opacity="0.161"/>
      <feComposite operator="in" in2="blur"/>
      <feComposite in="SourceGraphic"/>
    </filter>
  </defs>
  <g id="Group_1223088" data-name="Group 1223088" transform="translate(-326.781 -3852)">
    <g transform="matrix(1, 0, 0, 1, 326.78, 3852)" filter="url(#Rectangle_411831)">
      <g id="Rectangle_411831-2" data-name="Rectangle 411831" transform="translate(9 6)" fill="#ffc94a" stroke="#fff" stroke-width="2">
        <path d="M5,0H68a32,32,0,0,1,32,32V95a5,5,0,0,1-5,5H32A32,32,0,0,1,0,68V5A5,5,0,0,1,5,0Z" stroke="none"/>
        <path d="M5,1H68A31,31,0,0,1,99,32V95a4,4,0,0,1-4,4H32A31,31,0,0,1,1,68V5A4,4,0,0,1,5,1Z" fill="none"/>
      </g>
    </g>
    <g id="Layer_32" data-name="Layer 32" transform="translate(354.512 3872.729)">
      <path id="Path_1378875" data-name="Path 1378875" d="M15.321,8.825l-.746-.186a2.083,2.083,0,0,1-.153-4l1.7-.562.342-.685a2.526,2.526,0,0,1,4.52,0l.342.685A3.123,3.123,0,0,1,24.45,7.2a5.031,5.031,0,0,1-.874,2.832" transform="translate(0.491 0.041)" fill="#e73844"/>
      <path id="Path_1378876" data-name="Path 1378876" d="M54.676,22.635A2.445,2.445,0,0,1,56.8,25.059a2.78,2.78,0,0,1-1.537,2.487L50.555,29.9a13.447,13.447,0,0,1-5.168,7.287H19.327l-1.438-.959a10.783,10.783,0,0,1-3.663-13.812l1.561-3.133a3.943,3.943,0,0,0-2.753-5.63L11,13.246l3.123-2.082.083-.331a5.063,5.063,0,0,1,9.564-.767l4.345,10.139,14.053-.594,9.741-6.27A7.157,7.157,0,0,1,55.78,12.2a2.062,2.062,0,0,1,1.2,3.739l-6.424,4.588" transform="translate(0.409 0.245)" fill="#e6e6e6"/>
      <path id="Path_1378877" data-name="Path 1378877" d="M50.433,29.9l4.709-2.355a2.78,2.78,0,0,0,1.536-2.487,2.445,2.445,0,0,0-2.125-2.424l-4.121-2.1,6.424-4.588a2.062,2.062,0,0,0-1.2-3.739,7.158,7.158,0,0,0-3.872,1.137l-9.752,6.269-14.047.594L23.641,10.067a5.059,5.059,0,0,0-9.559.766L14,11.164l2.035.407a3.943,3.943,0,0,1,2.753,5.63l-1.561,3.132A10.8,10.8,0,0,0,20.9,34.145a5.7,5.7,0,0,0,3.164.959H47.573a13.428,13.428,0,0,0,2.859-5.2Z" transform="translate(0.532 0.245)" fill="#f2f2f2"/>
      <path id="Path_1378878" data-name="Path 1378878" d="M18,10h2.082v2.082H18Z" transform="translate(0.696 0.368)" fill="#a37765"/>
      <path id="Path_1378879" data-name="Path 1378879" d="M49,24.285l4.709-2.355a2.78,2.78,0,0,0,1.536-2.487A2.446,2.446,0,0,0,53.3,17.049L49,20.121" transform="translate(1.965 0.657)" fill="#e6e6e6"/>
      <path id="Path_1378880" data-name="Path 1378880" d="M24,22.164l.711-.569A16.41,16.41,0,0,1,34.959,18a19.723,19.723,0,0,1,8.818,2.081L39.614,23.2h5.2l-4.164,3.123h4.164a14.217,14.217,0,0,1-10.052,4.164H32.58a10.662,10.662,0,0,1-7.54-3.123" transform="translate(0.941 0.696)" fill="#e6e6e6"/>
      <path id="Path_1378881" data-name="Path 1378881" d="M4,46H62.292v6.246H4Z" transform="translate(0.123 1.842)" fill="#785349"/>
      <path id="Path_1378882" data-name="Path 1378882" d="M2,36H64.456V46.409H2Z" transform="translate(0.041 1.432)" fill="#a37765"/>
      <path id="Path_1378883" data-name="Path 1378883" d="M4,37.607a6.721,6.721,0,0,0,6.719,6.72H64.374V36H4Z" transform="translate(0.123 1.432)" fill="#bf9377"/>
      <path id="Path_1378884" data-name="Path 1378884" d="M2,52H64.456V62.409H2Z" transform="translate(0.041 2.087)" fill="#a37765"/>
      <path id="Path_1378885" data-name="Path 1378885" d="M4,53.607a6.721,6.721,0,0,0,6.719,6.72H64.374V52H4Z" transform="translate(0.123 2.087)" fill="#bf9377"/>
      <g id="Group_1203668" data-name="Group 1203668" transform="translate(7.246 41.596)">
        <path id="Path_1378886" data-name="Path 1378886" d="M7,40H9.082v2.082H7Z" transform="translate(-7 -40)" fill="#785349"/>
        <path id="Path_1378887" data-name="Path 1378887" d="M7,56H9.082v2.082H7Z" transform="translate(-7 -39.345)" fill="#785349"/>
        <path id="Path_1378888" data-name="Path 1378888" d="M55,40h2.082v2.082H55Z" transform="translate(-5.035 -40)" fill="#785349"/>
        <path id="Path_1378889" data-name="Path 1378889" d="M55,56h2.082v2.082H55Z" transform="translate(-5.035 -39.345)" fill="#785349"/>
      </g>
      <path id="Path_1378890" data-name="Path 1378890" d="M62.169,52.2V47H10.975A3.975,3.975,0,0,0,7,50.975V52.2Z" transform="translate(0.246 1.883)" fill="#916658"/>
      <path id="Path_1378891" data-name="Path 1378891" d="M64.5,36.391H48.557a14.532,14.532,0,0,0,3.274-5.517l4.308-2.154A3.8,3.8,0,0,0,58.251,25.3a3.475,3.475,0,0,0-1.105-2.525A3.788,3.788,0,0,0,58.251,20.1a3.48,3.48,0,0,0-1.064-2.488l.8-.576a3.1,3.1,0,0,0-1.8-5.627,8.189,8.189,0,0,0-4.433,1.3l-9.34,6.005A20.833,20.833,0,0,0,35.9,17.655a17.488,17.488,0,0,0-6.842,1.413l-3.826-8.929a6.028,6.028,0,0,0,.751-2.893,4.171,4.171,0,0,0-3.493-4.11l-.082-.158a3.566,3.566,0,0,0-6.381,0l-.15.3-1.292.43a3.113,3.113,0,0,0-.424,5.734,6.106,6.106,0,0,0-.54,1.329l-2.789,1.859a1.041,1.041,0,0,0,.37,1.882l2.035.408a2.9,2.9,0,0,1,2.027,4.144L13.7,22.2a11.832,11.832,0,0,0,2.791,14.2H2.041A1.041,1.041,0,0,0,1,37.432V47.842a1.041,1.041,0,0,0,1.041,1.041H3.082v4.164H2.041A1.041,1.041,0,0,0,1,54.087V64.5a1.041,1.041,0,0,0,1.041,1.041H64.5A1.041,1.041,0,0,0,65.538,64.5V54.087A1.041,1.041,0,0,0,64.5,53.046H63.456V48.883H64.5a1.041,1.041,0,0,0,1.041-1.041V37.432A1.041,1.041,0,0,0,64.5,36.391ZM15.242,5.677l1.7-.566a1.041,1.041,0,0,0,.6-.52l.342-.685a1.484,1.484,0,0,1,2.656,0l.342.685a1.041,1.041,0,0,0,.932.574A2.082,2.082,0,0,1,23.9,7.245a4,4,0,0,1-.079.749,6.046,6.046,0,0,0-8.3-.274l-.208-.051a1.041,1.041,0,0,1-.077-1.993Zm3.634,29.931a9.758,9.758,0,0,1-3.314-12.481l1.561-3.132a4.984,4.984,0,0,0-3.072-7.018l1.053-.7a1.041,1.041,0,0,0,.432-.613l.083-.332a4.019,4.019,0,0,1,7.593-.608L27.187,20A17.443,17.443,0,0,0,25,21.477l-.712.569,1.3,1.626L26.3,23.1a15.415,15.415,0,0,1,9.6-3.366,18.785,18.785,0,0,1,6.774,1.273l-2.744,2.058a1.041,1.041,0,0,0,.625,1.874h2.082L40.972,26.19a1.041,1.041,0,0,0,.625,1.874h1.228a13.088,13.088,0,0,1-7.117,2.082H33.522a9.558,9.558,0,0,1-6.8-2.818L25.246,28.8a11.625,11.625,0,0,0,8.275,3.428h2.186A15.154,15.154,0,0,0,46.5,27.759a1.041,1.041,0,0,0-.736-1.777H44.719l1.665-1.249a1.041,1.041,0,0,0-.625-1.874H43.678l1.665-1.249a1.041,1.041,0,0,0-.159-1.77c-.129-.065-.262-.12-.393-.182l8.091-5.2a6.109,6.109,0,0,1,3.308-.963,1.021,1.021,0,0,1,.592,1.852L50.36,19.931l1.21,1.693,3.851-2.751a1.4,1.4,0,0,1,.748,1.227,1.73,1.73,0,0,1-.962,1.561L50.5,24.015l.931,1.863L55.193,24a1.391,1.391,0,0,1,.976,1.308,1.73,1.73,0,0,1-.962,1.561L50.5,29.219a1.041,1.041,0,0,0-.535.645,12.456,12.456,0,0,1-4.517,6.527h-25.4Zm44.58,27.848H3.082V55.128H63.456ZM61.374,53.046H5.164V48.883h56.21ZM63.456,46.8H3.082V38.473H63.456Z" transform="translate(0)"/>
      <path id="Path_1378892" data-name="Path 1378892" d="M7,40H9.082v2.082H7Z" transform="translate(0.246 1.596)"/>
      <path id="Path_1378893" data-name="Path 1378893" d="M7,56H9.082v2.082H7Z" transform="translate(0.246 2.251)"/>
      <path id="Path_1378894" data-name="Path 1378894" d="M55,40h2.082v2.082H55Z" transform="translate(2.21 1.596)"/>
      <path id="Path_1378895" data-name="Path 1378895" d="M55,56h2.082v2.082H55Z" transform="translate(2.21 2.251)"/>
      <path id="Path_1378896" data-name="Path 1378896" d="M18,10h2.082v2.082H18Z" transform="translate(0.696 0.368)"/>
    </g>
  </g>
</svg>
